<mxfile host="app.diagrams.net" agent="Mozilla/5.0 (Windows NT 10.0; Win64; x64) AppleWebKit/537.36 (KHTML, like Gecko) Chrome/130.0.0.0 Safari/537.36" version="24.8.4">
  <diagram id="nxw2dvyNPHBl8qm0j6X3" name="Página-1">
    <mxGraphModel dx="3434" dy="2511" grid="1" gridSize="10" guides="1" tooltips="1" connect="1" arrows="1" fold="1" page="1" pageScale="1" pageWidth="827" pageHeight="1169" math="0" shadow="0">
      <root>
        <mxCell id="0" />
        <mxCell id="1" parent="0" />
        <mxCell id="lGGdBTwff3QEFtOllZTl-1" value="Oficina" style="rounded=1;whiteSpace=wrap;html=1;fillColor=#ffe6cc;strokeColor=#000000;" parent="1" vertex="1">
          <mxGeometry x="220" y="188" width="120" height="60" as="geometry" />
        </mxCell>
        <mxCell id="lGGdBTwff3QEFtOllZTl-2" value="" style="endArrow=none;html=1;rounded=0;exitX=1;exitY=0.5;exitDx=0;exitDy=0;entryX=0;entryY=0.5;entryDx=0;entryDy=0;" parent="1" source="lGGdBTwff3QEFtOllZTl-1" target="lGGdBTwff3QEFtOllZTl-3" edge="1">
          <mxGeometry width="50" height="50" relative="1" as="geometry">
            <mxPoint x="560" y="230" as="sourcePoint" />
            <mxPoint x="520" y="220" as="targetPoint" />
          </mxGeometry>
        </mxCell>
        <mxCell id="lGGdBTwff3QEFtOllZTl-3" value="se localiza" style="rhombus;whiteSpace=wrap;html=1;strokeColor=#000000;fillColor=#fff2cc;" parent="1" vertex="1">
          <mxGeometry x="540" y="180" width="80" height="80" as="geometry" />
        </mxCell>
        <mxCell id="lGGdBTwff3QEFtOllZTl-4" value="" style="endArrow=none;html=1;rounded=0;exitX=1;exitY=0.5;exitDx=0;exitDy=0;entryX=0;entryY=0.5;entryDx=0;entryDy=0;" parent="1" source="lGGdBTwff3QEFtOllZTl-3" target="lGGdBTwff3QEFtOllZTl-5" edge="1">
          <mxGeometry width="50" height="50" relative="1" as="geometry">
            <mxPoint x="650" y="240" as="sourcePoint" />
            <mxPoint x="700" y="220" as="targetPoint" />
          </mxGeometry>
        </mxCell>
        <mxCell id="lGGdBTwff3QEFtOllZTl-5" value="Municipio" style="rounded=1;whiteSpace=wrap;html=1;fillColor=#ffe6cc;strokeColor=#000000;" parent="1" vertex="1">
          <mxGeometry x="720" y="190" width="120" height="60" as="geometry" />
        </mxCell>
        <mxCell id="lGGdBTwff3QEFtOllZTl-6" value="(1,1)" style="text;html=1;align=center;verticalAlign=middle;resizable=0;points=[];autosize=1;strokeColor=none;fillColor=none;" parent="1" vertex="1">
          <mxGeometry x="345" y="190" width="50" height="30" as="geometry" />
        </mxCell>
        <mxCell id="lGGdBTwff3QEFtOllZTl-7" value="(0,N)" style="text;html=1;align=center;verticalAlign=middle;resizable=0;points=[];autosize=1;strokeColor=none;fillColor=none;" parent="1" vertex="1">
          <mxGeometry x="680" y="190" width="50" height="30" as="geometry" />
        </mxCell>
        <mxCell id="lGGdBTwff3QEFtOllZTl-8" value="" style="endArrow=none;html=1;rounded=0;exitX=1;exitY=0.5;exitDx=0;exitDy=0;entryX=0;entryY=0.5;entryDx=0;entryDy=0;" parent="1" source="lGGdBTwff3QEFtOllZTl-5" target="lGGdBTwff3QEFtOllZTl-9" edge="1">
          <mxGeometry width="50" height="50" relative="1" as="geometry">
            <mxPoint x="900" y="230" as="sourcePoint" />
            <mxPoint x="920" y="220" as="targetPoint" />
          </mxGeometry>
        </mxCell>
        <mxCell id="lGGdBTwff3QEFtOllZTl-9" value="" style="rhombus;whiteSpace=wrap;html=1;strokeColor=#000000;fillColor=#fff2cc;" parent="1" vertex="1">
          <mxGeometry x="930" y="180" width="80" height="80" as="geometry" />
        </mxCell>
        <mxCell id="lGGdBTwff3QEFtOllZTl-10" value="posee" style="rhombus;whiteSpace=wrap;html=1;strokeColor=#000000;fillColor=#fff2cc;" parent="1" vertex="1">
          <mxGeometry x="935" y="185" width="70" height="70" as="geometry" />
        </mxCell>
        <mxCell id="lGGdBTwff3QEFtOllZTl-11" value="" style="rounded=1;whiteSpace=wrap;html=1;fillColor=#ffe6cc;strokeColor=#000000;" parent="1" vertex="1">
          <mxGeometry x="1100" y="190" width="120" height="60" as="geometry" />
        </mxCell>
        <mxCell id="lGGdBTwff3QEFtOllZTl-12" value="Calle" style="rounded=1;whiteSpace=wrap;html=1;fillColor=#ffe6cc;strokeColor=#000000;" parent="1" vertex="1">
          <mxGeometry x="1105" y="195" width="110" height="50" as="geometry" />
        </mxCell>
        <mxCell id="lGGdBTwff3QEFtOllZTl-13" value="" style="endArrow=none;html=1;rounded=0;entryX=0;entryY=0.5;entryDx=0;entryDy=0;exitX=1;exitY=0.5;exitDx=0;exitDy=0;" parent="1" source="lGGdBTwff3QEFtOllZTl-9" target="lGGdBTwff3QEFtOllZTl-11" edge="1">
          <mxGeometry width="50" height="50" relative="1" as="geometry">
            <mxPoint x="920" y="380" as="sourcePoint" />
            <mxPoint x="970" y="330" as="targetPoint" />
          </mxGeometry>
        </mxCell>
        <mxCell id="lGGdBTwff3QEFtOllZTl-14" value="(1,N)" style="text;html=1;align=center;verticalAlign=middle;resizable=0;points=[];autosize=1;strokeColor=none;fillColor=none;" parent="1" vertex="1">
          <mxGeometry x="827" y="195" width="50" height="30" as="geometry" />
        </mxCell>
        <mxCell id="lGGdBTwff3QEFtOllZTl-15" value="(1,M)" style="text;html=1;align=center;verticalAlign=middle;resizable=0;points=[];autosize=1;strokeColor=none;fillColor=none;" parent="1" vertex="1">
          <mxGeometry x="1055" y="195" width="50" height="30" as="geometry" />
        </mxCell>
        <mxCell id="lGGdBTwff3QEFtOllZTl-16" value="" style="endArrow=none;html=1;rounded=0;exitX=1;exitY=0.5;exitDx=0;exitDy=0;entryX=0;entryY=0.5;entryDx=0;entryDy=0;" parent="1" source="lGGdBTwff3QEFtOllZTl-11" target="lGGdBTwff3QEFtOllZTl-17" edge="1">
          <mxGeometry width="50" height="50" relative="1" as="geometry">
            <mxPoint x="1290" y="250" as="sourcePoint" />
            <mxPoint x="1300" y="220" as="targetPoint" />
          </mxGeometry>
        </mxCell>
        <mxCell id="lGGdBTwff3QEFtOllZTl-17" value="" style="rhombus;whiteSpace=wrap;html=1;strokeColor=#000000;fillColor=#fff2cc;" parent="1" vertex="1">
          <mxGeometry x="1320" y="180" width="80" height="80" as="geometry" />
        </mxCell>
        <mxCell id="lGGdBTwff3QEFtOllZTl-18" value="tiene" style="rhombus;whiteSpace=wrap;html=1;strokeColor=#000000;fillColor=#fff2cc;" parent="1" vertex="1">
          <mxGeometry x="1325" y="185" width="70" height="70" as="geometry" />
        </mxCell>
        <mxCell id="lGGdBTwff3QEFtOllZTl-19" value="(1,1)" style="text;html=1;align=center;verticalAlign=middle;resizable=0;points=[];autosize=1;strokeColor=none;fillColor=none;" parent="1" vertex="1">
          <mxGeometry x="1220" y="195" width="50" height="30" as="geometry" />
        </mxCell>
        <mxCell id="lGGdBTwff3QEFtOllZTl-20" value="" style="endArrow=none;html=1;rounded=0;exitX=1;exitY=0.5;exitDx=0;exitDy=0;entryX=0;entryY=0.5;entryDx=0;entryDy=0;" parent="1" source="lGGdBTwff3QEFtOllZTl-17" target="lGGdBTwff3QEFtOllZTl-21" edge="1">
          <mxGeometry width="50" height="50" relative="1" as="geometry">
            <mxPoint x="1460" y="230" as="sourcePoint" />
            <mxPoint x="1470" y="220" as="targetPoint" />
          </mxGeometry>
        </mxCell>
        <mxCell id="lGGdBTwff3QEFtOllZTl-21" value="" style="rounded=1;whiteSpace=wrap;html=1;fillColor=#ffe6cc;strokeColor=#000000;" parent="1" vertex="1">
          <mxGeometry x="1480" y="190" width="120" height="60" as="geometry" />
        </mxCell>
        <mxCell id="lGGdBTwff3QEFtOllZTl-22" value="Dirección" style="rounded=1;whiteSpace=wrap;html=1;fillColor=#ffe6cc;strokeColor=#000000;" parent="1" vertex="1">
          <mxGeometry x="1485" y="195" width="110" height="50" as="geometry" />
        </mxCell>
        <mxCell id="lGGdBTwff3QEFtOllZTl-23" value="(1,N)" style="text;html=1;align=center;verticalAlign=middle;resizable=0;points=[];autosize=1;strokeColor=none;fillColor=none;" parent="1" vertex="1">
          <mxGeometry x="1435" y="195" width="50" height="30" as="geometry" />
        </mxCell>
        <mxCell id="lGGdBTwff3QEFtOllZTl-24" value="" style="endArrow=none;html=1;rounded=0;entryX=0.5;entryY=1;entryDx=0;entryDy=0;exitX=0.5;exitY=0;exitDx=0;exitDy=0;" parent="1" source="lGGdBTwff3QEFtOllZTl-25" target="lGGdBTwff3QEFtOllZTl-1" edge="1">
          <mxGeometry width="50" height="50" relative="1" as="geometry">
            <mxPoint x="280" y="318" as="sourcePoint" />
            <mxPoint x="290" y="298" as="targetPoint" />
          </mxGeometry>
        </mxCell>
        <mxCell id="lGGdBTwff3QEFtOllZTl-25" value="trabaja" style="rhombus;whiteSpace=wrap;html=1;strokeColor=#000000;fillColor=#fff2cc;" parent="1" vertex="1">
          <mxGeometry x="240" y="348" width="80" height="80" as="geometry" />
        </mxCell>
        <mxCell id="lGGdBTwff3QEFtOllZTl-26" value="" style="endArrow=none;html=1;rounded=0;entryX=0.5;entryY=1;entryDx=0;entryDy=0;exitX=0.5;exitY=0;exitDx=0;exitDy=0;" parent="1" source="lGGdBTwff3QEFtOllZTl-27" target="lGGdBTwff3QEFtOllZTl-25" edge="1">
          <mxGeometry width="50" height="50" relative="1" as="geometry">
            <mxPoint x="280" y="488" as="sourcePoint" />
            <mxPoint x="310" y="438" as="targetPoint" />
          </mxGeometry>
        </mxCell>
        <mxCell id="lGGdBTwff3QEFtOllZTl-27" value="Cartero" style="rounded=1;whiteSpace=wrap;html=1;fillColor=#ffe6cc;strokeColor=#000000;" parent="1" vertex="1">
          <mxGeometry x="220" y="522.5" width="120" height="60" as="geometry" />
        </mxCell>
        <mxCell id="lGGdBTwff3QEFtOllZTl-28" value="(1,M)" style="text;html=1;align=center;verticalAlign=middle;resizable=0;points=[];autosize=1;strokeColor=none;fillColor=none;" parent="1" vertex="1">
          <mxGeometry x="275" y="253" width="50" height="30" as="geometry" />
        </mxCell>
        <mxCell id="lGGdBTwff3QEFtOllZTl-29" value="(1,N)" style="text;html=1;align=center;verticalAlign=middle;resizable=0;points=[];autosize=1;strokeColor=none;fillColor=none;" parent="1" vertex="1">
          <mxGeometry x="275" y="493" width="50" height="30" as="geometry" />
        </mxCell>
        <mxCell id="lGGdBTwff3QEFtOllZTl-30" value="" style="endArrow=none;html=1;rounded=0;entryX=0;entryY=0.5;entryDx=0;entryDy=0;exitX=1;exitY=0.5;exitDx=0;exitDy=0;" parent="1" source="lGGdBTwff3QEFtOllZTl-31" target="lGGdBTwff3QEFtOllZTl-25" edge="1">
          <mxGeometry width="50" height="50" relative="1" as="geometry">
            <mxPoint x="190" y="358" as="sourcePoint" />
            <mxPoint x="220" y="368" as="targetPoint" />
          </mxGeometry>
        </mxCell>
        <mxCell id="lGGdBTwff3QEFtOllZTl-31" value="Turno" style="ellipse;whiteSpace=wrap;html=1;strokeColor=#000000;fillColor=#dae8fc;" parent="1" vertex="1">
          <mxGeometry x="90" y="348" width="100" height="30" as="geometry" />
        </mxCell>
        <mxCell id="lGGdBTwff3QEFtOllZTl-32" value="Horario" style="ellipse;whiteSpace=wrap;html=1;strokeColor=#000000;fillColor=#dae8fc;" parent="1" vertex="1">
          <mxGeometry x="90" y="398" width="100" height="30" as="geometry" />
        </mxCell>
        <mxCell id="lGGdBTwff3QEFtOllZTl-33" value="" style="endArrow=none;html=1;rounded=0;entryX=0;entryY=0.5;entryDx=0;entryDy=0;exitX=1;exitY=0.5;exitDx=0;exitDy=0;" parent="1" source="lGGdBTwff3QEFtOllZTl-32" target="lGGdBTwff3QEFtOllZTl-25" edge="1">
          <mxGeometry width="50" height="50" relative="1" as="geometry">
            <mxPoint x="190" y="448" as="sourcePoint" />
            <mxPoint x="240" y="398" as="targetPoint" />
          </mxGeometry>
        </mxCell>
        <mxCell id="lGGdBTwff3QEFtOllZTl-34" value="" style="endArrow=none;html=1;rounded=0;entryX=0.5;entryY=0;entryDx=0;entryDy=0;exitX=0.5;exitY=1;exitDx=0;exitDy=0;" parent="1" source="lGGdBTwff3QEFtOllZTl-35" target="lGGdBTwff3QEFtOllZTl-1" edge="1">
          <mxGeometry width="50" height="50" relative="1" as="geometry">
            <mxPoint x="270" y="148" as="sourcePoint" />
            <mxPoint x="330" y="138" as="targetPoint" />
          </mxGeometry>
        </mxCell>
        <mxCell id="lGGdBTwff3QEFtOllZTl-35" value="&lt;u&gt;Codigo oficina&lt;/u&gt;" style="ellipse;whiteSpace=wrap;html=1;strokeColor=#000000;fillColor=#dae8fc;" parent="1" vertex="1">
          <mxGeometry x="160" y="118" width="100" height="30" as="geometry" />
        </mxCell>
        <mxCell id="lGGdBTwff3QEFtOllZTl-36" value="&lt;u&gt;DNICartero&lt;/u&gt;" style="ellipse;whiteSpace=wrap;html=1;strokeColor=#000000;fillColor=#dae8fc;" parent="1" vertex="1">
          <mxGeometry x="90" y="479.5" width="100" height="30" as="geometry" />
        </mxCell>
        <mxCell id="lGGdBTwff3QEFtOllZTl-37" value="" style="endArrow=none;html=1;rounded=0;entryX=0;entryY=0.5;entryDx=0;entryDy=0;exitX=1;exitY=0.5;exitDx=0;exitDy=0;" parent="1" source="lGGdBTwff3QEFtOllZTl-36" target="lGGdBTwff3QEFtOllZTl-27" edge="1">
          <mxGeometry width="50" height="50" relative="1" as="geometry">
            <mxPoint x="140" y="608" as="sourcePoint" />
            <mxPoint x="190" y="558" as="targetPoint" />
          </mxGeometry>
        </mxCell>
        <mxCell id="lGGdBTwff3QEFtOllZTl-38" value="Nombre" style="ellipse;whiteSpace=wrap;html=1;strokeColor=#000000;fillColor=#dae8fc;" parent="1" vertex="1">
          <mxGeometry x="90" y="582.5" width="100" height="30" as="geometry" />
        </mxCell>
        <mxCell id="lGGdBTwff3QEFtOllZTl-39" value="Apellidos" style="ellipse;whiteSpace=wrap;html=1;strokeColor=#000000;fillColor=#dae8fc;" parent="1" vertex="1">
          <mxGeometry x="90" y="615" width="100" height="30" as="geometry" />
        </mxCell>
        <mxCell id="lGGdBTwff3QEFtOllZTl-40" value="" style="endArrow=none;html=1;rounded=0;entryX=0;entryY=0.5;entryDx=0;entryDy=0;exitX=1;exitY=0.5;exitDx=0;exitDy=0;" parent="1" source="lGGdBTwff3QEFtOllZTl-38" target="lGGdBTwff3QEFtOllZTl-27" edge="1">
          <mxGeometry width="50" height="50" relative="1" as="geometry">
            <mxPoint x="170" y="668" as="sourcePoint" />
            <mxPoint x="220" y="618" as="targetPoint" />
          </mxGeometry>
        </mxCell>
        <mxCell id="lGGdBTwff3QEFtOllZTl-41" value="" style="endArrow=none;html=1;rounded=0;entryX=0;entryY=0.5;entryDx=0;entryDy=0;exitX=1;exitY=0.5;exitDx=0;exitDy=0;" parent="1" source="lGGdBTwff3QEFtOllZTl-39" target="lGGdBTwff3QEFtOllZTl-27" edge="1">
          <mxGeometry width="50" height="50" relative="1" as="geometry">
            <mxPoint x="140" y="668" as="sourcePoint" />
            <mxPoint x="190" y="618" as="targetPoint" />
          </mxGeometry>
        </mxCell>
        <mxCell id="lGGdBTwff3QEFtOllZTl-42" value="" style="endArrow=none;html=1;rounded=0;exitX=0.5;exitY=0;exitDx=0;exitDy=0;entryX=0.5;entryY=1;entryDx=0;entryDy=0;" parent="1" source="lGGdBTwff3QEFtOllZTl-5" target="lGGdBTwff3QEFtOllZTl-43" edge="1">
          <mxGeometry width="50" height="50" relative="1" as="geometry">
            <mxPoint x="740" y="170" as="sourcePoint" />
            <mxPoint x="740" y="150" as="targetPoint" />
          </mxGeometry>
        </mxCell>
        <mxCell id="lGGdBTwff3QEFtOllZTl-43" value="&lt;u&gt;NombreMunicipio&lt;/u&gt;" style="ellipse;whiteSpace=wrap;html=1;strokeColor=#000000;fillColor=#dae8fc;" parent="1" vertex="1">
          <mxGeometry x="660" y="140" width="100" height="30" as="geometry" />
        </mxCell>
        <mxCell id="lGGdBTwff3QEFtOllZTl-44" value="Provincia" style="ellipse;whiteSpace=wrap;html=1;strokeColor=#000000;fillColor=#dae8fc;" parent="1" vertex="1">
          <mxGeometry x="800" y="140" width="100" height="30" as="geometry" />
        </mxCell>
        <mxCell id="lGGdBTwff3QEFtOllZTl-45" value="" style="endArrow=none;html=1;rounded=0;exitX=0.5;exitY=0;exitDx=0;exitDy=0;entryX=0.5;entryY=1;entryDx=0;entryDy=0;" parent="1" source="lGGdBTwff3QEFtOllZTl-5" target="lGGdBTwff3QEFtOllZTl-44" edge="1">
          <mxGeometry width="50" height="50" relative="1" as="geometry">
            <mxPoint x="810" y="200" as="sourcePoint" />
            <mxPoint x="860" y="150" as="targetPoint" />
          </mxGeometry>
        </mxCell>
        <mxCell id="lGGdBTwff3QEFtOllZTl-46" value="" style="endArrow=none;html=1;rounded=0;exitX=0.5;exitY=0;exitDx=0;exitDy=0;entryX=0.5;entryY=1;entryDx=0;entryDy=0;" parent="1" source="lGGdBTwff3QEFtOllZTl-5" target="lGGdBTwff3QEFtOllZTl-47" edge="1">
          <mxGeometry width="50" height="50" relative="1" as="geometry">
            <mxPoint x="760" y="150" as="sourcePoint" />
            <mxPoint x="780" y="50" as="targetPoint" />
          </mxGeometry>
        </mxCell>
        <mxCell id="lGGdBTwff3QEFtOllZTl-47" value="Hay" style="rhombus;whiteSpace=wrap;html=1;strokeColor=#000000;fillColor=#fff2cc;" parent="1" vertex="1">
          <mxGeometry x="740" y="-30" width="80" height="80" as="geometry" />
        </mxCell>
        <mxCell id="lGGdBTwff3QEFtOllZTl-48" value="Centro de clasificación" style="rounded=1;whiteSpace=wrap;html=1;fillColor=#ffe6cc;strokeColor=#000000;" parent="1" vertex="1">
          <mxGeometry x="720" y="-190" width="120" height="60" as="geometry" />
        </mxCell>
        <mxCell id="lGGdBTwff3QEFtOllZTl-49" value="" style="endArrow=none;html=1;rounded=0;exitX=0.5;exitY=0;exitDx=0;exitDy=0;entryX=0.5;entryY=1;entryDx=0;entryDy=0;" parent="1" source="lGGdBTwff3QEFtOllZTl-47" target="lGGdBTwff3QEFtOllZTl-48" edge="1">
          <mxGeometry width="50" height="50" relative="1" as="geometry">
            <mxPoint x="730" y="-50" as="sourcePoint" />
            <mxPoint x="780" y="-110" as="targetPoint" />
          </mxGeometry>
        </mxCell>
        <mxCell id="lGGdBTwff3QEFtOllZTl-50" value="(1,1)" style="text;html=1;align=center;verticalAlign=middle;resizable=0;points=[];autosize=1;strokeColor=none;fillColor=none;" parent="1" vertex="1">
          <mxGeometry x="770" y="110" width="50" height="30" as="geometry" />
        </mxCell>
        <mxCell id="lGGdBTwff3QEFtOllZTl-51" value="(0,N)" style="text;html=1;align=center;verticalAlign=middle;resizable=0;points=[];autosize=1;strokeColor=none;fillColor=none;" parent="1" vertex="1">
          <mxGeometry x="770" y="-130" width="50" height="30" as="geometry" />
        </mxCell>
        <mxCell id="lGGdBTwff3QEFtOllZTl-52" value="Asociada" style="rhombus;whiteSpace=wrap;html=1;strokeColor=#000000;fillColor=#fff2cc;" parent="1" vertex="1">
          <mxGeometry x="240" y="-202" width="80" height="80" as="geometry" />
        </mxCell>
        <mxCell id="lGGdBTwff3QEFtOllZTl-53" value="" style="endArrow=none;html=1;rounded=0;exitX=1;exitY=0.5;exitDx=0;exitDy=0;entryX=0;entryY=0.5;entryDx=0;entryDy=0;" parent="1" source="lGGdBTwff3QEFtOllZTl-52" target="lGGdBTwff3QEFtOllZTl-48" edge="1">
          <mxGeometry width="50" height="50" relative="1" as="geometry">
            <mxPoint x="530" y="-130" as="sourcePoint" />
            <mxPoint x="580" y="-180" as="targetPoint" />
          </mxGeometry>
        </mxCell>
        <mxCell id="lGGdBTwff3QEFtOllZTl-54" value="" style="endArrow=none;html=1;rounded=0;entryX=0.5;entryY=1;entryDx=0;entryDy=0;exitX=0.5;exitY=0;exitDx=0;exitDy=0;" parent="1" source="lGGdBTwff3QEFtOllZTl-1" target="lGGdBTwff3QEFtOllZTl-52" edge="1">
          <mxGeometry width="50" height="50" relative="1" as="geometry">
            <mxPoint x="270" y="-22" as="sourcePoint" />
            <mxPoint x="320" y="-72" as="targetPoint" />
          </mxGeometry>
        </mxCell>
        <mxCell id="lGGdBTwff3QEFtOllZTl-55" value="(1,N)" style="text;html=1;align=center;verticalAlign=middle;resizable=0;points=[];autosize=1;strokeColor=none;fillColor=none;" parent="1" vertex="1">
          <mxGeometry x="670" y="-190" width="50" height="30" as="geometry" />
        </mxCell>
        <mxCell id="lGGdBTwff3QEFtOllZTl-56" value="(0,N)" style="text;html=1;align=center;verticalAlign=middle;resizable=0;points=[];autosize=1;strokeColor=none;fillColor=none;" parent="1" vertex="1">
          <mxGeometry x="270" y="148" width="50" height="30" as="geometry" />
        </mxCell>
        <mxCell id="lGGdBTwff3QEFtOllZTl-57" value="nMaxPaq" style="ellipse;whiteSpace=wrap;html=1;align=center;fillColor=#dae8fc;strokeColor=#6c8ebf;" parent="1" vertex="1">
          <mxGeometry x="670" y="-320" width="100" height="40" as="geometry" />
        </mxCell>
        <mxCell id="lGGdBTwff3QEFtOllZTl-58" value="Nombre" style="ellipse;whiteSpace=wrap;html=1;align=center;fillColor=#dae8fc;strokeColor=#6c8ebf;" parent="1" vertex="1">
          <mxGeometry x="827" y="-280" width="100" height="40" as="geometry" />
        </mxCell>
        <mxCell id="lGGdBTwff3QEFtOllZTl-59" value="&lt;u&gt;CodCC&lt;/u&gt;" style="ellipse;whiteSpace=wrap;html=1;align=center;fillColor=#dae8fc;strokeColor=#6c8ebf;" parent="1" vertex="1">
          <mxGeometry x="600" y="-280" width="100" height="40" as="geometry" />
        </mxCell>
        <mxCell id="lGGdBTwff3QEFtOllZTl-61" value="nMaxCar" style="ellipse;whiteSpace=wrap;html=1;align=center;fillColor=#dae8fc;strokeColor=#6c8ebf;" parent="1" vertex="1">
          <mxGeometry x="770" y="-320" width="100" height="40" as="geometry" />
        </mxCell>
        <mxCell id="lGGdBTwff3QEFtOllZTl-62" value="" style="endArrow=none;html=1;rounded=0;exitX=0.5;exitY=0;exitDx=0;exitDy=0;entryX=0.5;entryY=1;entryDx=0;entryDy=0;" parent="1" source="lGGdBTwff3QEFtOllZTl-48" target="lGGdBTwff3QEFtOllZTl-59" edge="1">
          <mxGeometry width="50" height="50" relative="1" as="geometry">
            <mxPoint x="670" y="-200" as="sourcePoint" />
            <mxPoint x="720" y="-250" as="targetPoint" />
          </mxGeometry>
        </mxCell>
        <mxCell id="lGGdBTwff3QEFtOllZTl-63" value="" style="endArrow=none;html=1;rounded=0;exitX=0.5;exitY=0;exitDx=0;exitDy=0;entryX=0.5;entryY=1;entryDx=0;entryDy=0;" parent="1" source="lGGdBTwff3QEFtOllZTl-48" target="lGGdBTwff3QEFtOllZTl-57" edge="1">
          <mxGeometry width="50" height="50" relative="1" as="geometry">
            <mxPoint x="750" y="-210" as="sourcePoint" />
            <mxPoint x="800" y="-260" as="targetPoint" />
          </mxGeometry>
        </mxCell>
        <mxCell id="lGGdBTwff3QEFtOllZTl-64" value="" style="endArrow=none;html=1;rounded=0;exitX=0.5;exitY=0;exitDx=0;exitDy=0;entryX=0.5;entryY=1;entryDx=0;entryDy=0;" parent="1" source="lGGdBTwff3QEFtOllZTl-48" target="lGGdBTwff3QEFtOllZTl-61" edge="1">
          <mxGeometry width="50" height="50" relative="1" as="geometry">
            <mxPoint x="780" y="-200" as="sourcePoint" />
            <mxPoint x="830" y="-250" as="targetPoint" />
          </mxGeometry>
        </mxCell>
        <mxCell id="lGGdBTwff3QEFtOllZTl-65" value="" style="endArrow=none;html=1;rounded=0;exitX=0.5;exitY=0;exitDx=0;exitDy=0;entryX=0.5;entryY=1;entryDx=0;entryDy=0;" parent="1" source="lGGdBTwff3QEFtOllZTl-48" target="lGGdBTwff3QEFtOllZTl-58" edge="1">
          <mxGeometry width="50" height="50" relative="1" as="geometry">
            <mxPoint x="850" y="-190" as="sourcePoint" />
            <mxPoint x="900" y="-220" as="targetPoint" />
          </mxGeometry>
        </mxCell>
        <mxCell id="lGGdBTwff3QEFtOllZTl-66" value="" style="endArrow=none;html=1;rounded=0;entryX=0.5;entryY=1;entryDx=0;entryDy=0;exitX=0.5;exitY=0;exitDx=0;exitDy=0;" parent="1" source="lGGdBTwff3QEFtOllZTl-69" target="lGGdBTwff3QEFtOllZTl-11" edge="1">
          <mxGeometry width="50" height="50" relative="1" as="geometry">
            <mxPoint x="1160" y="360" as="sourcePoint" />
            <mxPoint x="1230" y="310" as="targetPoint" />
          </mxGeometry>
        </mxCell>
        <mxCell id="lGGdBTwff3QEFtOllZTl-67" value="&lt;font style=&quot;font-size: 11px;&quot;&gt;Nombre&lt;/font&gt;Calle" style="ellipse;whiteSpace=wrap;html=1;strokeColor=#000000;fillColor=#dae8fc;" parent="1" vertex="1">
          <mxGeometry x="1110" y="118" width="100" height="30" as="geometry" />
        </mxCell>
        <mxCell id="lGGdBTwff3QEFtOllZTl-68" value="" style="endArrow=none;html=1;rounded=0;entryX=0.5;entryY=1;entryDx=0;entryDy=0;exitX=0.5;exitY=0;exitDx=0;exitDy=0;" parent="1" source="lGGdBTwff3QEFtOllZTl-11" target="lGGdBTwff3QEFtOllZTl-67" edge="1">
          <mxGeometry width="50" height="50" relative="1" as="geometry">
            <mxPoint x="1110" y="200" as="sourcePoint" />
            <mxPoint x="1160" y="150" as="targetPoint" />
          </mxGeometry>
        </mxCell>
        <mxCell id="lGGdBTwff3QEFtOllZTl-69" value="" style="rhombus;whiteSpace=wrap;html=1;strokeColor=#000000;fillColor=#fff2cc;" parent="1" vertex="1">
          <mxGeometry x="1120" y="378" width="80" height="80" as="geometry" />
        </mxCell>
        <mxCell id="lGGdBTwff3QEFtOllZTl-70" value="tiene" style="rhombus;whiteSpace=wrap;html=1;strokeColor=#000000;fillColor=#fff2cc;" parent="1" vertex="1">
          <mxGeometry x="1125" y="383" width="70" height="70" as="geometry" />
        </mxCell>
        <mxCell id="lGGdBTwff3QEFtOllZTl-71" value="(1,1)" style="text;html=1;align=center;verticalAlign=middle;resizable=0;points=[];autosize=1;strokeColor=none;fillColor=none;" parent="1" vertex="1">
          <mxGeometry x="1150" y="245" width="50" height="30" as="geometry" />
        </mxCell>
        <mxCell id="lGGdBTwff3QEFtOllZTl-72" value="" style="endArrow=none;html=1;rounded=0;entryX=0.5;entryY=1;entryDx=0;entryDy=0;exitX=0.5;exitY=0;exitDx=0;exitDy=0;" parent="1" edge="1">
          <mxGeometry width="50" height="50" relative="1" as="geometry">
            <mxPoint x="1160" y="525" as="sourcePoint" />
            <mxPoint x="1160" y="459.5" as="targetPoint" />
          </mxGeometry>
        </mxCell>
        <mxCell id="lGGdBTwff3QEFtOllZTl-74" value="(1,N)" style="text;html=1;align=center;verticalAlign=middle;resizable=0;points=[];autosize=1;strokeColor=none;fillColor=none;" parent="1" vertex="1">
          <mxGeometry x="1150" y="486.5" width="50" height="30" as="geometry" />
        </mxCell>
        <mxCell id="lGGdBTwff3QEFtOllZTl-75" value="Nº Inicio" style="ellipse;whiteSpace=wrap;html=1;strokeColor=#000000;fillColor=#dae8fc;" parent="1" vertex="1">
          <mxGeometry x="1270" y="501.5" width="100" height="30" as="geometry" />
        </mxCell>
        <mxCell id="lGGdBTwff3QEFtOllZTl-77" value="Nº Fin" style="ellipse;whiteSpace=wrap;html=1;strokeColor=#000000;fillColor=#dae8fc;" parent="1" vertex="1">
          <mxGeometry x="1270" y="536" width="100" height="30" as="geometry" />
        </mxCell>
        <mxCell id="lGGdBTwff3QEFtOllZTl-78" value="&lt;u&gt;Código segmento&lt;/u&gt;" style="ellipse;whiteSpace=wrap;html=1;strokeColor=#000000;fillColor=#dae8fc;" parent="1" vertex="1">
          <mxGeometry x="1270" y="571.5" width="100" height="30" as="geometry" />
        </mxCell>
        <mxCell id="lGGdBTwff3QEFtOllZTl-79" value="" style="endArrow=none;html=1;rounded=0;entryX=0;entryY=0.5;entryDx=0;entryDy=0;exitX=1;exitY=0.5;exitDx=0;exitDy=0;" parent="1" target="lGGdBTwff3QEFtOllZTl-75" edge="1">
          <mxGeometry width="50" height="50" relative="1" as="geometry">
            <mxPoint x="1220" y="555" as="sourcePoint" />
            <mxPoint x="1260" y="621.5" as="targetPoint" />
          </mxGeometry>
        </mxCell>
        <mxCell id="lGGdBTwff3QEFtOllZTl-80" value="" style="endArrow=none;html=1;rounded=0;entryX=0;entryY=0.5;entryDx=0;entryDy=0;exitX=1;exitY=0.5;exitDx=0;exitDy=0;" parent="1" target="lGGdBTwff3QEFtOllZTl-77" edge="1">
          <mxGeometry width="50" height="50" relative="1" as="geometry">
            <mxPoint x="1220" y="555" as="sourcePoint" />
            <mxPoint x="1140" y="631.5" as="targetPoint" />
          </mxGeometry>
        </mxCell>
        <mxCell id="lGGdBTwff3QEFtOllZTl-81" value="" style="endArrow=none;html=1;rounded=0;entryX=0;entryY=0.5;entryDx=0;entryDy=0;exitX=1;exitY=0.5;exitDx=0;exitDy=0;" parent="1" target="lGGdBTwff3QEFtOllZTl-78" edge="1">
          <mxGeometry width="50" height="50" relative="1" as="geometry">
            <mxPoint x="1220" y="555" as="sourcePoint" />
            <mxPoint x="1180" y="621.5" as="targetPoint" />
          </mxGeometry>
        </mxCell>
        <mxCell id="lGGdBTwff3QEFtOllZTl-82" value="" style="endArrow=none;html=1;rounded=0;entryX=1;entryY=1;entryDx=0;entryDy=0;exitX=0.5;exitY=0;exitDx=0;exitDy=0;" parent="1" source="lGGdBTwff3QEFtOllZTl-83" target="lGGdBTwff3QEFtOllZTl-1" edge="1">
          <mxGeometry width="50" height="50" relative="1" as="geometry">
            <mxPoint x="640" y="380" as="sourcePoint" />
            <mxPoint x="660" y="340" as="targetPoint" />
          </mxGeometry>
        </mxCell>
        <mxCell id="lGGdBTwff3QEFtOllZTl-83" value="se asocia" style="rhombus;whiteSpace=wrap;html=1;strokeColor=#000000;fillColor=#fff2cc;" parent="1" vertex="1">
          <mxGeometry x="610" y="380" width="80" height="80" as="geometry" />
        </mxCell>
        <mxCell id="lGGdBTwff3QEFtOllZTl-84" value="" style="endArrow=none;html=1;rounded=0;entryX=0.5;entryY=1;entryDx=0;entryDy=0;exitX=0.5;exitY=0;exitDx=0;exitDy=0;" parent="1" source="lGGdBTwff3QEFtOllZTl-85" target="lGGdBTwff3QEFtOllZTl-83" edge="1">
          <mxGeometry width="50" height="50" relative="1" as="geometry">
            <mxPoint x="650" y="510" as="sourcePoint" />
            <mxPoint x="670" y="490" as="targetPoint" />
          </mxGeometry>
        </mxCell>
        <mxCell id="lGGdBTwff3QEFtOllZTl-85" value="Área de envío" style="rounded=1;whiteSpace=wrap;html=1;fillColor=#ffe6cc;strokeColor=#000000;" parent="1" vertex="1">
          <mxGeometry x="590" y="525" width="120" height="60" as="geometry" />
        </mxCell>
        <mxCell id="lGGdBTwff3QEFtOllZTl-87" value="Área de envío" style="rounded=1;whiteSpace=wrap;html=1;fillColor=#ffe6cc;strokeColor=#000000;" parent="1" vertex="1">
          <mxGeometry x="595" y="530" width="110" height="50" as="geometry" />
        </mxCell>
        <mxCell id="lGGdBTwff3QEFtOllZTl-88" value="" style="rhombus;whiteSpace=wrap;html=1;strokeColor=#000000;fillColor=#fff2cc;" parent="1" vertex="1">
          <mxGeometry x="610" y="640" width="80" height="80" as="geometry" />
        </mxCell>
        <mxCell id="lGGdBTwff3QEFtOllZTl-89" value="Incluye" style="rhombus;whiteSpace=wrap;html=1;strokeColor=#000000;fillColor=#fff2cc;" parent="1" vertex="1">
          <mxGeometry x="615" y="645" width="70" height="70" as="geometry" />
        </mxCell>
        <mxCell id="lGGdBTwff3QEFtOllZTl-90" value="" style="endArrow=none;html=1;rounded=0;entryX=0.327;entryY=0.983;entryDx=0;entryDy=0;entryPerimeter=0;exitX=0;exitY=0.5;exitDx=0;exitDy=0;" parent="1" source="lGGdBTwff3QEFtOllZTl-88" target="lGGdBTwff3QEFtOllZTl-85" edge="1">
          <mxGeometry width="50" height="50" relative="1" as="geometry">
            <mxPoint x="590" y="650" as="sourcePoint" />
            <mxPoint x="640" y="600" as="targetPoint" />
          </mxGeometry>
        </mxCell>
        <mxCell id="lGGdBTwff3QEFtOllZTl-91" value="" style="endArrow=none;html=1;rounded=0;entryX=0.66;entryY=0.983;entryDx=0;entryDy=0;exitX=1;exitY=0.5;exitDx=0;exitDy=0;entryPerimeter=0;" parent="1" source="lGGdBTwff3QEFtOllZTl-88" target="lGGdBTwff3QEFtOllZTl-85" edge="1">
          <mxGeometry width="50" height="50" relative="1" as="geometry">
            <mxPoint x="730" y="660" as="sourcePoint" />
            <mxPoint x="780" y="610" as="targetPoint" />
          </mxGeometry>
        </mxCell>
        <mxCell id="lGGdBTwff3QEFtOllZTl-92" value="" style="endArrow=none;html=1;rounded=0;exitX=1;exitY=0.5;exitDx=0;exitDy=0;entryX=0;entryY=0.5;entryDx=0;entryDy=0;" parent="1" source="lGGdBTwff3QEFtOllZTl-85" target="lGGdBTwff3QEFtOllZTl-93" edge="1">
          <mxGeometry width="50" height="50" relative="1" as="geometry">
            <mxPoint x="790" y="580" as="sourcePoint" />
            <mxPoint x="850" y="555" as="targetPoint" />
          </mxGeometry>
        </mxCell>
        <mxCell id="lGGdBTwff3QEFtOllZTl-93" value="se encarga" style="rhombus;whiteSpace=wrap;html=1;strokeColor=#000000;fillColor=#fff2cc;" parent="1" vertex="1">
          <mxGeometry x="870" y="514.5" width="80" height="80" as="geometry" />
        </mxCell>
        <mxCell id="lGGdBTwff3QEFtOllZTl-94" value="" style="endArrow=none;html=1;rounded=0;exitX=1;exitY=0.5;exitDx=0;exitDy=0;entryX=0;entryY=0.58;entryDx=0;entryDy=0;entryPerimeter=0;" parent="1" source="lGGdBTwff3QEFtOllZTl-93" target="9IITK_Hqd2dyz2tdz5-P-5" edge="1">
          <mxGeometry width="50" height="50" relative="1" as="geometry">
            <mxPoint x="980" y="510" as="sourcePoint" />
            <mxPoint x="1100" y="555" as="targetPoint" />
          </mxGeometry>
        </mxCell>
        <mxCell id="lGGdBTwff3QEFtOllZTl-95" value="" style="endArrow=none;html=1;rounded=0;entryX=0.5;entryY=1;entryDx=0;entryDy=0;exitX=0.5;exitY=0;exitDx=0;exitDy=0;" parent="1" source="lGGdBTwff3QEFtOllZTl-96" edge="1">
          <mxGeometry width="50" height="50" relative="1" as="geometry">
            <mxPoint x="1160" y="650" as="sourcePoint" />
            <mxPoint x="1160" y="585" as="targetPoint" />
          </mxGeometry>
        </mxCell>
        <mxCell id="lGGdBTwff3QEFtOllZTl-96" value="Recorre" style="rhombus;whiteSpace=wrap;html=1;strokeColor=#000000;fillColor=#fff2cc;" parent="1" vertex="1">
          <mxGeometry x="1120" y="680" width="80" height="80" as="geometry" />
        </mxCell>
        <mxCell id="lGGdBTwff3QEFtOllZTl-97" value="Ruta" style="rounded=1;whiteSpace=wrap;html=1;fillColor=#ffe6cc;strokeColor=#000000;" parent="1" vertex="1">
          <mxGeometry x="1100" y="805" width="120" height="60" as="geometry" />
        </mxCell>
        <mxCell id="lGGdBTwff3QEFtOllZTl-99" value="" style="endArrow=none;html=1;rounded=0;entryX=0.5;entryY=1;entryDx=0;entryDy=0;exitX=0.5;exitY=0;exitDx=0;exitDy=0;" parent="1" source="lGGdBTwff3QEFtOllZTl-97" target="lGGdBTwff3QEFtOllZTl-96" edge="1">
          <mxGeometry width="50" height="50" relative="1" as="geometry">
            <mxPoint x="1030" y="790" as="sourcePoint" />
            <mxPoint x="1080" y="740" as="targetPoint" />
          </mxGeometry>
        </mxCell>
        <mxCell id="lGGdBTwff3QEFtOllZTl-100" value="(1,N)" style="text;html=1;align=center;verticalAlign=middle;resizable=0;points=[];autosize=1;strokeColor=none;fillColor=none;" parent="1" vertex="1">
          <mxGeometry x="1155" y="576.5" width="50" height="30" as="geometry" />
        </mxCell>
        <mxCell id="lGGdBTwff3QEFtOllZTl-101" value="(1,1)" style="text;html=1;align=center;verticalAlign=middle;resizable=0;points=[];autosize=1;strokeColor=none;fillColor=none;" parent="1" vertex="1">
          <mxGeometry x="1150" y="775" width="50" height="30" as="geometry" />
        </mxCell>
        <mxCell id="lGGdBTwff3QEFtOllZTl-102" value="(1,M)" style="text;html=1;align=center;verticalAlign=middle;resizable=0;points=[];autosize=1;strokeColor=none;fillColor=none;" parent="1" vertex="1">
          <mxGeometry x="570" y="620" width="50" height="30" as="geometry" />
        </mxCell>
        <mxCell id="lGGdBTwff3QEFtOllZTl-104" value="(1,1)" style="text;html=1;align=center;verticalAlign=middle;resizable=0;points=[];autosize=1;strokeColor=none;fillColor=none;" parent="1" vertex="1">
          <mxGeometry x="715" y="525" width="50" height="30" as="geometry" />
        </mxCell>
        <mxCell id="lGGdBTwff3QEFtOllZTl-105" value="(1,N)" style="text;html=1;align=center;verticalAlign=middle;resizable=0;points=[];autosize=1;strokeColor=none;fillColor=none;" parent="1" vertex="1">
          <mxGeometry x="1045" y="526.5" width="50" height="30" as="geometry" />
        </mxCell>
        <mxCell id="lGGdBTwff3QEFtOllZTl-106" value="" style="endArrow=none;html=1;rounded=0;entryX=0;entryY=0.5;entryDx=0;entryDy=0;exitX=1;exitY=0.5;exitDx=0;exitDy=0;" parent="1" source="lGGdBTwff3QEFtOllZTl-107" target="lGGdBTwff3QEFtOllZTl-85" edge="1">
          <mxGeometry width="50" height="50" relative="1" as="geometry">
            <mxPoint x="530" y="555" as="sourcePoint" />
            <mxPoint x="520" y="550" as="targetPoint" />
          </mxGeometry>
        </mxCell>
        <mxCell id="lGGdBTwff3QEFtOllZTl-107" value="&lt;u&gt;Código area envio&lt;/u&gt;" style="ellipse;whiteSpace=wrap;html=1;strokeColor=#000000;fillColor=#dae8fc;" parent="1" vertex="1">
          <mxGeometry x="450" y="540" width="100" height="30" as="geometry" />
        </mxCell>
        <mxCell id="lGGdBTwff3QEFtOllZTl-108" value="" style="endArrow=none;html=1;rounded=0;exitX=1;exitY=0.5;exitDx=0;exitDy=0;entryX=0;entryY=0.5;entryDx=0;entryDy=0;" parent="1" source="lGGdBTwff3QEFtOllZTl-97" target="lGGdBTwff3QEFtOllZTl-109" edge="1">
          <mxGeometry width="50" height="50" relative="1" as="geometry">
            <mxPoint x="1280" y="810" as="sourcePoint" />
            <mxPoint x="1290" y="820" as="targetPoint" />
          </mxGeometry>
        </mxCell>
        <mxCell id="lGGdBTwff3QEFtOllZTl-109" value="id Ruta" style="ellipse;whiteSpace=wrap;html=1;strokeColor=#000000;fillColor=#dae8fc;" parent="1" vertex="1">
          <mxGeometry x="1295" y="820" width="100" height="30" as="geometry" />
        </mxCell>
        <mxCell id="lGGdBTwff3QEFtOllZTl-110" value="" style="endArrow=none;dashed=1;html=1;dashPattern=1 3;strokeWidth=2;rounded=0;entryX=0;entryY=1;entryDx=0;entryDy=0;exitX=1;exitY=1;exitDx=0;exitDy=0;" parent="1" source="lGGdBTwff3QEFtOllZTl-109" target="lGGdBTwff3QEFtOllZTl-109" edge="1">
          <mxGeometry width="50" height="50" relative="1" as="geometry">
            <mxPoint x="1400" y="790" as="sourcePoint" />
            <mxPoint x="1390" y="890" as="targetPoint" />
          </mxGeometry>
        </mxCell>
        <mxCell id="lGGdBTwff3QEFtOllZTl-111" value="" style="endArrow=none;html=1;rounded=0;entryX=0.5;entryY=1;entryDx=0;entryDy=0;exitX=0.5;exitY=0;exitDx=0;exitDy=0;" parent="1" source="lGGdBTwff3QEFtOllZTl-112" target="lGGdBTwff3QEFtOllZTl-27" edge="1">
          <mxGeometry width="50" height="50" relative="1" as="geometry">
            <mxPoint x="280" y="660" as="sourcePoint" />
            <mxPoint x="330" y="610" as="targetPoint" />
          </mxGeometry>
        </mxCell>
        <mxCell id="lGGdBTwff3QEFtOllZTl-112" value="Reparte" style="rhombus;whiteSpace=wrap;html=1;strokeColor=#000000;fillColor=#fff2cc;" parent="1" vertex="1">
          <mxGeometry x="240" y="670" width="80" height="80" as="geometry" />
        </mxCell>
        <mxCell id="lGGdBTwff3QEFtOllZTl-113" value="Reparto" style="rounded=1;whiteSpace=wrap;html=1;fillColor=#ffe6cc;strokeColor=#000000;" parent="1" vertex="1">
          <mxGeometry x="220" y="805" width="120" height="60" as="geometry" />
        </mxCell>
        <mxCell id="lGGdBTwff3QEFtOllZTl-114" value="" style="endArrow=none;html=1;rounded=0;entryX=0.5;entryY=1;entryDx=0;entryDy=0;exitX=0.5;exitY=0;exitDx=0;exitDy=0;" parent="1" source="lGGdBTwff3QEFtOllZTl-113" target="lGGdBTwff3QEFtOllZTl-112" edge="1">
          <mxGeometry width="50" height="50" relative="1" as="geometry">
            <mxPoint x="40" y="820" as="sourcePoint" />
            <mxPoint x="90" y="770" as="targetPoint" />
          </mxGeometry>
        </mxCell>
        <mxCell id="lGGdBTwff3QEFtOllZTl-115" value="" style="endArrow=none;html=1;rounded=0;exitX=1;exitY=0.5;exitDx=0;exitDy=0;entryX=0;entryY=0.5;entryDx=0;entryDy=0;" parent="1" source="lGGdBTwff3QEFtOllZTl-113" target="lGGdBTwff3QEFtOllZTl-116" edge="1">
          <mxGeometry width="50" height="50" relative="1" as="geometry">
            <mxPoint x="490" y="860" as="sourcePoint" />
            <mxPoint x="520" y="835" as="targetPoint" />
          </mxGeometry>
        </mxCell>
        <mxCell id="lGGdBTwff3QEFtOllZTl-116" value="Asigna" style="rhombus;whiteSpace=wrap;html=1;strokeColor=#000000;fillColor=#fff2cc;" parent="1" vertex="1">
          <mxGeometry x="705" y="795" width="80" height="80" as="geometry" />
        </mxCell>
        <mxCell id="lGGdBTwff3QEFtOllZTl-118" value="" style="endArrow=none;html=1;rounded=0;exitX=1;exitY=0.5;exitDx=0;exitDy=0;entryX=0;entryY=0.5;entryDx=0;entryDy=0;" parent="1" source="lGGdBTwff3QEFtOllZTl-116" target="lGGdBTwff3QEFtOllZTl-97" edge="1">
          <mxGeometry width="50" height="50" relative="1" as="geometry">
            <mxPoint x="760" y="900" as="sourcePoint" />
            <mxPoint x="810" y="850" as="targetPoint" />
          </mxGeometry>
        </mxCell>
        <mxCell id="lGGdBTwff3QEFtOllZTl-119" value="(1,1)" style="text;html=1;align=center;verticalAlign=middle;resizable=0;points=[];autosize=1;strokeColor=none;fillColor=none;" parent="1" vertex="1">
          <mxGeometry x="270" y="580" width="50" height="30" as="geometry" />
        </mxCell>
        <mxCell id="lGGdBTwff3QEFtOllZTl-120" value="(0,N)" style="text;html=1;align=center;verticalAlign=middle;resizable=0;points=[];autosize=1;strokeColor=none;fillColor=none;" parent="1" vertex="1">
          <mxGeometry x="270" y="775" width="50" height="30" as="geometry" />
        </mxCell>
        <mxCell id="lGGdBTwff3QEFtOllZTl-122" value="(1,M)" style="text;html=1;align=center;verticalAlign=middle;resizable=0;points=[];autosize=1;strokeColor=none;fillColor=none;" parent="1" vertex="1">
          <mxGeometry x="1045" y="835" width="50" height="30" as="geometry" />
        </mxCell>
        <mxCell id="lGGdBTwff3QEFtOllZTl-123" value="(1,N)" style="text;html=1;align=center;verticalAlign=middle;resizable=0;points=[];autosize=1;strokeColor=none;fillColor=none;" parent="1" vertex="1">
          <mxGeometry x="340" y="835" width="50" height="30" as="geometry" />
        </mxCell>
        <mxCell id="lGGdBTwff3QEFtOllZTl-124" value="" style="endArrow=none;html=1;rounded=0;exitX=1;exitY=0;exitDx=0;exitDy=0;entryX=0.5;entryY=1;entryDx=0;entryDy=0;" parent="1" source="lGGdBTwff3QEFtOllZTl-113" target="lGGdBTwff3QEFtOllZTl-125" edge="1">
          <mxGeometry width="50" height="50" relative="1" as="geometry">
            <mxPoint x="410" y="800" as="sourcePoint" />
            <mxPoint x="360" y="760" as="targetPoint" />
          </mxGeometry>
        </mxCell>
        <mxCell id="lGGdBTwff3QEFtOllZTl-125" value="Fecha" style="ellipse;whiteSpace=wrap;html=1;strokeColor=#000000;fillColor=#dae8fc;" parent="1" vertex="1">
          <mxGeometry x="364" y="700" width="100" height="30" as="geometry" />
        </mxCell>
        <mxCell id="lGGdBTwff3QEFtOllZTl-126" value="" style="endArrow=none;html=1;rounded=0;exitX=1;exitY=0;exitDx=0;exitDy=0;entryX=0.5;entryY=1;entryDx=0;entryDy=0;" parent="1" source="lGGdBTwff3QEFtOllZTl-113" target="lGGdBTwff3QEFtOllZTl-127" edge="1">
          <mxGeometry width="50" height="50" relative="1" as="geometry">
            <mxPoint x="380" y="830" as="sourcePoint" />
            <mxPoint x="430" y="780" as="targetPoint" />
          </mxGeometry>
        </mxCell>
        <mxCell id="lGGdBTwff3QEFtOllZTl-127" value="&lt;u&gt;IdReparto&lt;/u&gt;" style="ellipse;whiteSpace=wrap;html=1;strokeColor=#000000;fillColor=#dae8fc;" parent="1" vertex="1">
          <mxGeometry x="420" y="745" width="100" height="30" as="geometry" />
        </mxCell>
        <mxCell id="lGGdBTwff3QEFtOllZTl-128" value="(1,1)" style="text;html=1;align=center;verticalAlign=middle;resizable=0;points=[];autosize=1;strokeColor=none;fillColor=none;" parent="1" vertex="1">
          <mxGeometry x="360" y="235" width="50" height="30" as="geometry" />
        </mxCell>
        <mxCell id="lGGdBTwff3QEFtOllZTl-129" value="(1,N)" style="text;html=1;align=center;verticalAlign=middle;resizable=0;points=[];autosize=1;strokeColor=none;fillColor=none;" parent="1" vertex="1">
          <mxGeometry x="640" y="484.5" width="50" height="30" as="geometry" />
        </mxCell>
        <mxCell id="lGGdBTwff3QEFtOllZTl-130" value="" style="endArrow=none;html=1;rounded=0;entryX=0;entryY=0.5;entryDx=0;entryDy=0;exitX=1;exitY=0.5;exitDx=0;exitDy=0;" parent="1" source="lGGdBTwff3QEFtOllZTl-132" target="lGGdBTwff3QEFtOllZTl-27" edge="1">
          <mxGeometry width="50" height="50" relative="1" as="geometry">
            <mxPoint x="-210" y="660" as="sourcePoint" />
            <mxPoint x="120" y="530" as="targetPoint" />
          </mxGeometry>
        </mxCell>
        <mxCell id="lGGdBTwff3QEFtOllZTl-131" value="" style="endArrow=none;html=1;rounded=0;entryX=0;entryY=0.5;entryDx=0;entryDy=0;exitX=0.5;exitY=1;exitDx=0;exitDy=0;" parent="1" source="lGGdBTwff3QEFtOllZTl-141" target="lGGdBTwff3QEFtOllZTl-27" edge="1">
          <mxGeometry width="50" height="50" relative="1" as="geometry">
            <mxPoint x="-200" y="460" as="sourcePoint" />
            <mxPoint x="40" y="510" as="targetPoint" />
          </mxGeometry>
        </mxCell>
        <mxCell id="lGGdBTwff3QEFtOllZTl-132" value="Asignado" style="rhombus;whiteSpace=wrap;html=1;strokeColor=#000000;fillColor=#fff2cc;" parent="1" vertex="1">
          <mxGeometry x="-320" y="620" width="80" height="80" as="geometry" />
        </mxCell>
        <mxCell id="lGGdBTwff3QEFtOllZTl-133" value="" style="endArrow=none;html=1;rounded=0;entryX=0;entryY=0.5;entryDx=0;entryDy=0;exitX=1;exitY=0.5;exitDx=0;exitDy=0;" parent="1" source="lGGdBTwff3QEFtOllZTl-134" target="lGGdBTwff3QEFtOllZTl-132" edge="1">
          <mxGeometry width="50" height="50" relative="1" as="geometry">
            <mxPoint x="-400" y="660" as="sourcePoint" />
            <mxPoint x="-350" y="650" as="targetPoint" />
          </mxGeometry>
        </mxCell>
        <mxCell id="lGGdBTwff3QEFtOllZTl-134" value="Recogida" style="rounded=1;whiteSpace=wrap;html=1;fillColor=#ffe6cc;strokeColor=#000000;" parent="1" vertex="1">
          <mxGeometry x="-533" y="630" width="120" height="60" as="geometry" />
        </mxCell>
        <mxCell id="lGGdBTwff3QEFtOllZTl-135" value="(0,1)" style="text;html=1;align=center;verticalAlign=middle;resizable=0;points=[];autosize=1;strokeColor=none;fillColor=none;" parent="1" vertex="1">
          <mxGeometry x="160" y="555" width="50" height="30" as="geometry" />
        </mxCell>
        <mxCell id="lGGdBTwff3QEFtOllZTl-136" value="(0,N)" style="text;html=1;align=center;verticalAlign=middle;resizable=0;points=[];autosize=1;strokeColor=none;fillColor=none;" parent="1" vertex="1">
          <mxGeometry x="-420" y="630" width="50" height="30" as="geometry" />
        </mxCell>
        <mxCell id="lGGdBTwff3QEFtOllZTl-137" value="" style="endArrow=none;html=1;rounded=0;entryX=0;entryY=0.5;entryDx=0;entryDy=0;exitX=1;exitY=0.5;exitDx=0;exitDy=0;" parent="1" source="lGGdBTwff3QEFtOllZTl-138" target="lGGdBTwff3QEFtOllZTl-1" edge="1">
          <mxGeometry width="50" height="50" relative="1" as="geometry">
            <mxPoint x="100" y="220" as="sourcePoint" />
            <mxPoint x="140" y="200" as="targetPoint" />
          </mxGeometry>
        </mxCell>
        <mxCell id="lGGdBTwff3QEFtOllZTl-138" value="Tiene" style="rhombus;whiteSpace=wrap;html=1;strokeColor=#000000;fillColor=#fff2cc;" parent="1" vertex="1">
          <mxGeometry x="-20" y="178" width="80" height="80" as="geometry" />
        </mxCell>
        <mxCell id="lGGdBTwff3QEFtOllZTl-139" value="" style="endArrow=none;html=1;rounded=0;entryX=0;entryY=0.5;entryDx=0;entryDy=0;exitX=1;exitY=0.5;exitDx=0;exitDy=0;" parent="1" source="lGGdBTwff3QEFtOllZTl-140" target="lGGdBTwff3QEFtOllZTl-138" edge="1">
          <mxGeometry width="50" height="50" relative="1" as="geometry">
            <mxPoint x="-200" y="220" as="sourcePoint" />
            <mxPoint x="-200" y="170" as="targetPoint" />
          </mxGeometry>
        </mxCell>
        <mxCell id="lGGdBTwff3QEFtOllZTl-140" value="Coche" style="rounded=1;whiteSpace=wrap;html=1;fillColor=#ffe6cc;strokeColor=#000000;" parent="1" vertex="1">
          <mxGeometry x="-340" y="188" width="120" height="60" as="geometry" />
        </mxCell>
        <mxCell id="lGGdBTwff3QEFtOllZTl-141" value="Asigna" style="rhombus;whiteSpace=wrap;html=1;strokeColor=#000000;fillColor=#fff2cc;" parent="1" vertex="1">
          <mxGeometry x="-320" y="400" width="80" height="80" as="geometry" />
        </mxCell>
        <mxCell id="lGGdBTwff3QEFtOllZTl-143" value="" style="endArrow=none;html=1;rounded=0;entryX=0.5;entryY=1;entryDx=0;entryDy=0;exitX=0.5;exitY=0;exitDx=0;exitDy=0;" parent="1" source="lGGdBTwff3QEFtOllZTl-141" target="lGGdBTwff3QEFtOllZTl-140" edge="1">
          <mxGeometry width="50" height="50" relative="1" as="geometry">
            <mxPoint x="-330" y="330" as="sourcePoint" />
            <mxPoint x="-280" y="280" as="targetPoint" />
          </mxGeometry>
        </mxCell>
        <mxCell id="lGGdBTwff3QEFtOllZTl-144" value="(0,1)" style="text;html=1;align=center;verticalAlign=middle;resizable=0;points=[];autosize=1;strokeColor=none;fillColor=none;" parent="1" vertex="1">
          <mxGeometry x="-290" y="250" width="50" height="30" as="geometry" />
        </mxCell>
        <mxCell id="lGGdBTwff3QEFtOllZTl-145" value="(1,N)" style="text;html=1;align=center;verticalAlign=middle;resizable=0;points=[];autosize=1;strokeColor=none;fillColor=none;" parent="1" vertex="1">
          <mxGeometry x="155" y="516.5" width="50" height="30" as="geometry" />
        </mxCell>
        <mxCell id="lGGdBTwff3QEFtOllZTl-146" value="" style="endArrow=none;html=1;rounded=0;entryX=0.5;entryY=1;entryDx=0;entryDy=0;exitX=0.5;exitY=0;exitDx=0;exitDy=0;" parent="1" source="lGGdBTwff3QEFtOllZTl-147" target="lGGdBTwff3QEFtOllZTl-113" edge="1">
          <mxGeometry width="50" height="50" relative="1" as="geometry">
            <mxPoint x="280" y="970" as="sourcePoint" />
            <mxPoint x="270" y="930" as="targetPoint" />
          </mxGeometry>
        </mxCell>
        <mxCell id="lGGdBTwff3QEFtOllZTl-147" value="Pertenece" style="rhombus;whiteSpace=wrap;html=1;strokeColor=#000000;fillColor=#fff2cc;" parent="1" vertex="1">
          <mxGeometry x="240" y="990" width="80" height="80" as="geometry" />
        </mxCell>
        <mxCell id="lGGdBTwff3QEFtOllZTl-149" value="(0,1)" style="text;html=1;align=center;verticalAlign=middle;resizable=0;points=[];autosize=1;strokeColor=none;fillColor=none;" parent="1" vertex="1">
          <mxGeometry x="210" y="865" width="50" height="30" as="geometry" />
        </mxCell>
        <mxCell id="lGGdBTwff3QEFtOllZTl-151" value="" style="endArrow=none;html=1;rounded=0;entryX=0.5;entryY=1;entryDx=0;entryDy=0;exitX=0.5;exitY=0;exitDx=0;exitDy=0;" parent="1" source="lGGdBTwff3QEFtOllZTl-154" target="lGGdBTwff3QEFtOllZTl-147" edge="1">
          <mxGeometry width="50" height="50" relative="1" as="geometry">
            <mxPoint x="280" y="1240" as="sourcePoint" />
            <mxPoint x="290" y="1180" as="targetPoint" />
          </mxGeometry>
        </mxCell>
        <mxCell id="lGGdBTwff3QEFtOllZTl-153" value="Cartas" style="rounded=1;whiteSpace=wrap;html=1;fillColor=#ffe6cc;strokeColor=#000000;" parent="1" vertex="1">
          <mxGeometry x="-140" y="1240" width="120" height="60" as="geometry" />
        </mxCell>
        <mxCell id="lGGdBTwff3QEFtOllZTl-154" value="Paquetes" style="rounded=1;whiteSpace=wrap;html=1;fillColor=#ffe6cc;strokeColor=#000000;" parent="1" vertex="1">
          <mxGeometry x="220" y="1240" width="120" height="60" as="geometry" />
        </mxCell>
        <mxCell id="lGGdBTwff3QEFtOllZTl-155" value="Cartas certificadas" style="rounded=1;whiteSpace=wrap;html=1;fillColor=#ffe6cc;strokeColor=#000000;" parent="1" vertex="1">
          <mxGeometry x="580" y="1240" width="120" height="60" as="geometry" />
        </mxCell>
        <mxCell id="lGGdBTwff3QEFtOllZTl-156" value="(0,N)" style="text;html=1;align=center;verticalAlign=middle;resizable=0;points=[];autosize=1;strokeColor=none;fillColor=none;" parent="1" vertex="1">
          <mxGeometry x="-100" y="1205" width="50" height="30" as="geometry" />
        </mxCell>
        <mxCell id="lGGdBTwff3QEFtOllZTl-157" value="(0,N)" style="text;html=1;align=center;verticalAlign=middle;resizable=0;points=[];autosize=1;strokeColor=none;fillColor=none;" parent="1" vertex="1">
          <mxGeometry x="275" y="1205" width="50" height="30" as="geometry" />
        </mxCell>
        <mxCell id="lGGdBTwff3QEFtOllZTl-158" value="(0,N)" style="text;html=1;align=center;verticalAlign=middle;resizable=0;points=[];autosize=1;strokeColor=none;fillColor=none;" parent="1" vertex="1">
          <mxGeometry x="620" y="1210" width="50" height="30" as="geometry" />
        </mxCell>
        <mxCell id="lGGdBTwff3QEFtOllZTl-159" value="Usuario" style="rounded=1;whiteSpace=wrap;html=1;fillColor=#ffe6cc;strokeColor=#000000;" parent="1" vertex="1">
          <mxGeometry x="30" y="1670" width="120" height="60" as="geometry" />
        </mxCell>
        <mxCell id="lGGdBTwff3QEFtOllZTl-160" value="Usuario Certificado" style="rounded=1;whiteSpace=wrap;html=1;fillColor=#ffe6cc;strokeColor=#000000;" parent="1" vertex="1">
          <mxGeometry x="590" y="1660" width="120" height="60" as="geometry" />
        </mxCell>
        <mxCell id="lGGdBTwff3QEFtOllZTl-161" value="envia" style="rhombus;whiteSpace=wrap;html=1;strokeColor=#000000;fillColor=#fff2cc;" parent="1" vertex="1">
          <mxGeometry x="-210" y="1400" width="80" height="80" as="geometry" />
        </mxCell>
        <mxCell id="lGGdBTwff3QEFtOllZTl-162" value="recibe" style="rhombus;whiteSpace=wrap;html=1;strokeColor=#000000;fillColor=#fff2cc;" parent="1" vertex="1">
          <mxGeometry x="-80" y="1400" width="80" height="80" as="geometry" />
        </mxCell>
        <mxCell id="lGGdBTwff3QEFtOllZTl-163" value="envia" style="rhombus;whiteSpace=wrap;html=1;strokeColor=#000000;fillColor=#fff2cc;" parent="1" vertex="1">
          <mxGeometry x="520" y="1440" width="80" height="80" as="geometry" />
        </mxCell>
        <mxCell id="lGGdBTwff3QEFtOllZTl-164" value="recibe" style="rhombus;whiteSpace=wrap;html=1;strokeColor=#000000;fillColor=#fff2cc;" parent="1" vertex="1">
          <mxGeometry x="685" y="1440" width="80" height="80" as="geometry" />
        </mxCell>
        <mxCell id="lGGdBTwff3QEFtOllZTl-165" value="" style="endArrow=none;html=1;rounded=0;entryX=0.5;entryY=1;entryDx=0;entryDy=0;exitX=0.5;exitY=0;exitDx=0;exitDy=0;" parent="1" source="lGGdBTwff3QEFtOllZTl-163" target="lGGdBTwff3QEFtOllZTl-155" edge="1">
          <mxGeometry width="50" height="50" relative="1" as="geometry">
            <mxPoint x="610" y="1380" as="sourcePoint" />
            <mxPoint x="660" y="1330" as="targetPoint" />
          </mxGeometry>
        </mxCell>
        <mxCell id="lGGdBTwff3QEFtOllZTl-166" value="" style="endArrow=none;html=1;rounded=0;entryX=0.5;entryY=1;entryDx=0;entryDy=0;exitX=0.5;exitY=0;exitDx=0;exitDy=0;" parent="1" source="lGGdBTwff3QEFtOllZTl-164" target="lGGdBTwff3QEFtOllZTl-155" edge="1">
          <mxGeometry width="50" height="50" relative="1" as="geometry">
            <mxPoint x="670" y="1380" as="sourcePoint" />
            <mxPoint x="720" y="1330" as="targetPoint" />
          </mxGeometry>
        </mxCell>
        <mxCell id="lGGdBTwff3QEFtOllZTl-167" value="" style="endArrow=none;html=1;rounded=0;entryX=0.5;entryY=1;entryDx=0;entryDy=0;exitX=0.5;exitY=0;exitDx=0;exitDy=0;" parent="1" source="lGGdBTwff3QEFtOllZTl-160" target="lGGdBTwff3QEFtOllZTl-163" edge="1">
          <mxGeometry width="50" height="50" relative="1" as="geometry">
            <mxPoint x="600" y="1600" as="sourcePoint" />
            <mxPoint x="650" y="1550" as="targetPoint" />
          </mxGeometry>
        </mxCell>
        <mxCell id="lGGdBTwff3QEFtOllZTl-168" value="" style="endArrow=none;html=1;rounded=0;entryX=0.5;entryY=1;entryDx=0;entryDy=0;exitX=0.5;exitY=0;exitDx=0;exitDy=0;" parent="1" source="lGGdBTwff3QEFtOllZTl-160" target="lGGdBTwff3QEFtOllZTl-164" edge="1">
          <mxGeometry width="50" height="50" relative="1" as="geometry">
            <mxPoint x="690" y="1570" as="sourcePoint" />
            <mxPoint x="740" y="1520" as="targetPoint" />
          </mxGeometry>
        </mxCell>
        <mxCell id="lGGdBTwff3QEFtOllZTl-169" value="envia" style="rhombus;whiteSpace=wrap;html=1;strokeColor=#000000;fillColor=#fff2cc;" parent="1" vertex="1">
          <mxGeometry x="170" y="1400" width="80" height="80" as="geometry" />
        </mxCell>
        <mxCell id="lGGdBTwff3QEFtOllZTl-170" value="recibe" style="rhombus;whiteSpace=wrap;html=1;strokeColor=#000000;fillColor=#fff2cc;" parent="1" vertex="1">
          <mxGeometry x="310" y="1400" width="80" height="80" as="geometry" />
        </mxCell>
        <mxCell id="lGGdBTwff3QEFtOllZTl-171" value="" style="endArrow=none;html=1;rounded=0;entryX=0.5;entryY=1;entryDx=0;entryDy=0;exitX=0.5;exitY=0;exitDx=0;exitDy=0;" parent="1" source="lGGdBTwff3QEFtOllZTl-161" target="lGGdBTwff3QEFtOllZTl-153" edge="1">
          <mxGeometry width="50" height="50" relative="1" as="geometry">
            <mxPoint x="-260" y="1340" as="sourcePoint" />
            <mxPoint x="-210" y="1290" as="targetPoint" />
          </mxGeometry>
        </mxCell>
        <mxCell id="lGGdBTwff3QEFtOllZTl-172" value="" style="endArrow=none;html=1;rounded=0;entryX=0.5;entryY=1;entryDx=0;entryDy=0;exitX=0.5;exitY=0;exitDx=0;exitDy=0;" parent="1" source="lGGdBTwff3QEFtOllZTl-162" target="lGGdBTwff3QEFtOllZTl-153" edge="1">
          <mxGeometry width="50" height="50" relative="1" as="geometry">
            <mxPoint x="-80" y="1370" as="sourcePoint" />
            <mxPoint x="-30" y="1320" as="targetPoint" />
          </mxGeometry>
        </mxCell>
        <mxCell id="lGGdBTwff3QEFtOllZTl-173" value="" style="endArrow=none;html=1;rounded=0;entryX=0.5;entryY=1;entryDx=0;entryDy=0;exitX=0.5;exitY=0;exitDx=0;exitDy=0;" parent="1" source="lGGdBTwff3QEFtOllZTl-169" target="lGGdBTwff3QEFtOllZTl-154" edge="1">
          <mxGeometry width="50" height="50" relative="1" as="geometry">
            <mxPoint x="220" y="1400" as="sourcePoint" />
            <mxPoint x="270" y="1350" as="targetPoint" />
          </mxGeometry>
        </mxCell>
        <mxCell id="lGGdBTwff3QEFtOllZTl-174" value="" style="endArrow=none;html=1;rounded=0;entryX=0.5;entryY=1;entryDx=0;entryDy=0;exitX=0.5;exitY=0;exitDx=0;exitDy=0;" parent="1" source="lGGdBTwff3QEFtOllZTl-170" target="lGGdBTwff3QEFtOllZTl-154" edge="1">
          <mxGeometry width="50" height="50" relative="1" as="geometry">
            <mxPoint x="300" y="1380" as="sourcePoint" />
            <mxPoint x="350" y="1330" as="targetPoint" />
          </mxGeometry>
        </mxCell>
        <mxCell id="lGGdBTwff3QEFtOllZTl-175" value="" style="endArrow=none;html=1;rounded=0;entryX=0.5;entryY=1;entryDx=0;entryDy=0;exitX=0.5;exitY=0;exitDx=0;exitDy=0;" parent="1" source="lGGdBTwff3QEFtOllZTl-159" target="lGGdBTwff3QEFtOllZTl-161" edge="1">
          <mxGeometry width="50" height="50" relative="1" as="geometry">
            <mxPoint x="-130" y="1600" as="sourcePoint" />
            <mxPoint x="-80" y="1550" as="targetPoint" />
          </mxGeometry>
        </mxCell>
        <mxCell id="lGGdBTwff3QEFtOllZTl-176" value="" style="endArrow=none;html=1;rounded=0;entryX=0.5;entryY=1;entryDx=0;entryDy=0;exitX=0.5;exitY=0;exitDx=0;exitDy=0;" parent="1" source="lGGdBTwff3QEFtOllZTl-159" target="lGGdBTwff3QEFtOllZTl-162" edge="1">
          <mxGeometry width="50" height="50" relative="1" as="geometry">
            <mxPoint x="-30" y="1570" as="sourcePoint" />
            <mxPoint x="20" y="1520" as="targetPoint" />
          </mxGeometry>
        </mxCell>
        <mxCell id="lGGdBTwff3QEFtOllZTl-177" value="" style="endArrow=none;html=1;rounded=0;entryX=0.5;entryY=1;entryDx=0;entryDy=0;exitX=0.5;exitY=0;exitDx=0;exitDy=0;" parent="1" source="lGGdBTwff3QEFtOllZTl-159" target="lGGdBTwff3QEFtOllZTl-169" edge="1">
          <mxGeometry width="50" height="50" relative="1" as="geometry">
            <mxPoint x="120" y="1530" as="sourcePoint" />
            <mxPoint x="170" y="1480" as="targetPoint" />
          </mxGeometry>
        </mxCell>
        <mxCell id="lGGdBTwff3QEFtOllZTl-178" value="" style="endArrow=none;html=1;rounded=0;entryX=0.5;entryY=1;entryDx=0;entryDy=0;exitX=0.5;exitY=0;exitDx=0;exitDy=0;" parent="1" source="lGGdBTwff3QEFtOllZTl-159" target="lGGdBTwff3QEFtOllZTl-170" edge="1">
          <mxGeometry width="50" height="50" relative="1" as="geometry">
            <mxPoint x="260" y="1580" as="sourcePoint" />
            <mxPoint x="310" y="1530" as="targetPoint" />
          </mxGeometry>
        </mxCell>
        <mxCell id="lGGdBTwff3QEFtOllZTl-179" value="(0,N)" style="text;html=1;align=center;verticalAlign=middle;resizable=0;points=[];autosize=1;strokeColor=none;fillColor=none;" parent="1" vertex="1">
          <mxGeometry x="-70" y="1315" width="50" height="30" as="geometry" />
        </mxCell>
        <mxCell id="lGGdBTwff3QEFtOllZTl-180" value="(0,N)" style="text;html=1;align=center;verticalAlign=middle;resizable=0;points=[];autosize=1;strokeColor=none;fillColor=none;" parent="1" vertex="1">
          <mxGeometry x="-160" y="1315" width="50" height="30" as="geometry" />
        </mxCell>
        <mxCell id="lGGdBTwff3QEFtOllZTl-181" value="(0,N)" style="text;html=1;align=center;verticalAlign=middle;resizable=0;points=[];autosize=1;strokeColor=none;fillColor=none;" parent="1" vertex="1">
          <mxGeometry x="210" y="1310" width="50" height="30" as="geometry" />
        </mxCell>
        <mxCell id="lGGdBTwff3QEFtOllZTl-182" value="(0,N)" style="text;html=1;align=center;verticalAlign=middle;resizable=0;points=[];autosize=1;strokeColor=none;fillColor=none;" parent="1" vertex="1">
          <mxGeometry x="290" y="1310" width="50" height="30" as="geometry" />
        </mxCell>
        <mxCell id="lGGdBTwff3QEFtOllZTl-183" value="(0,N)" style="text;html=1;align=center;verticalAlign=middle;resizable=0;points=[];autosize=1;strokeColor=none;fillColor=none;" parent="1" vertex="1">
          <mxGeometry x="570" y="1310" width="50" height="30" as="geometry" />
        </mxCell>
        <mxCell id="lGGdBTwff3QEFtOllZTl-184" value="(0,N)" style="text;html=1;align=center;verticalAlign=middle;resizable=0;points=[];autosize=1;strokeColor=none;fillColor=none;" parent="1" vertex="1">
          <mxGeometry x="665" y="1310" width="50" height="30" as="geometry" />
        </mxCell>
        <mxCell id="lGGdBTwff3QEFtOllZTl-185" value="(1,1)" style="text;html=1;align=center;verticalAlign=middle;resizable=0;points=[];autosize=1;strokeColor=none;fillColor=none;" parent="1" vertex="1">
          <mxGeometry y="1640" width="50" height="30" as="geometry" />
        </mxCell>
        <mxCell id="lGGdBTwff3QEFtOllZTl-186" value="(1,1)" style="text;html=1;align=center;verticalAlign=middle;resizable=0;points=[];autosize=1;strokeColor=none;fillColor=none;" parent="1" vertex="1">
          <mxGeometry x="50" y="1600" width="50" height="30" as="geometry" />
        </mxCell>
        <mxCell id="lGGdBTwff3QEFtOllZTl-187" value="(1,1)" style="text;html=1;align=center;verticalAlign=middle;resizable=0;points=[];autosize=1;strokeColor=none;fillColor=none;" parent="1" vertex="1">
          <mxGeometry x="120" y="1590" width="50" height="30" as="geometry" />
        </mxCell>
        <mxCell id="lGGdBTwff3QEFtOllZTl-188" value="(1,1)" style="text;html=1;align=center;verticalAlign=middle;resizable=0;points=[];autosize=1;strokeColor=none;fillColor=none;" parent="1" vertex="1">
          <mxGeometry x="140" y="1620" width="50" height="30" as="geometry" />
        </mxCell>
        <mxCell id="lGGdBTwff3QEFtOllZTl-189" value="(1,1)" style="text;html=1;align=center;verticalAlign=middle;resizable=0;points=[];autosize=1;strokeColor=none;fillColor=none;" parent="1" vertex="1">
          <mxGeometry x="590" y="1620" width="50" height="30" as="geometry" />
        </mxCell>
        <mxCell id="lGGdBTwff3QEFtOllZTl-190" value="(1,1)" style="text;html=1;align=center;verticalAlign=middle;resizable=0;points=[];autosize=1;strokeColor=none;fillColor=none;" parent="1" vertex="1">
          <mxGeometry x="655" y="1620" width="50" height="30" as="geometry" />
        </mxCell>
        <mxCell id="lGGdBTwff3QEFtOllZTl-191" value="" style="endArrow=none;html=1;rounded=0;entryX=0.5;entryY=1;entryDx=0;entryDy=0;exitX=0.5;exitY=0;exitDx=0;exitDy=0;" parent="1" source="lGGdBTwff3QEFtOllZTl-192" target="lGGdBTwff3QEFtOllZTl-159" edge="1">
          <mxGeometry width="50" height="50" relative="1" as="geometry">
            <mxPoint x="40" y="1800" as="sourcePoint" />
            <mxPoint x="140" y="1760" as="targetPoint" />
          </mxGeometry>
        </mxCell>
        <mxCell id="lGGdBTwff3QEFtOllZTl-192" value="Nombre" style="ellipse;whiteSpace=wrap;html=1;strokeColor=#000000;fillColor=#dae8fc;" parent="1" vertex="1">
          <mxGeometry x="-20" y="1790" width="100" height="30" as="geometry" />
        </mxCell>
        <mxCell id="lGGdBTwff3QEFtOllZTl-193" value="Apellidos" style="ellipse;whiteSpace=wrap;html=1;strokeColor=#000000;fillColor=#dae8fc;" parent="1" vertex="1">
          <mxGeometry x="100" y="1790" width="100" height="30" as="geometry" />
        </mxCell>
        <mxCell id="lGGdBTwff3QEFtOllZTl-194" value="" style="endArrow=none;html=1;rounded=0;entryX=0.5;entryY=1;entryDx=0;entryDy=0;exitX=0.5;exitY=0;exitDx=0;exitDy=0;" parent="1" source="lGGdBTwff3QEFtOllZTl-193" target="lGGdBTwff3QEFtOllZTl-159" edge="1">
          <mxGeometry width="50" height="50" relative="1" as="geometry">
            <mxPoint x="100" y="1790" as="sourcePoint" />
            <mxPoint x="150" y="1740" as="targetPoint" />
          </mxGeometry>
        </mxCell>
        <mxCell id="lGGdBTwff3QEFtOllZTl-195" value="&lt;u&gt;DNIUC&lt;/u&gt;" style="ellipse;whiteSpace=wrap;html=1;strokeColor=#000000;fillColor=#dae8fc;" parent="1" vertex="1">
          <mxGeometry x="510" y="1753" width="85" height="50" as="geometry" />
        </mxCell>
        <mxCell id="lGGdBTwff3QEFtOllZTl-196" value="" style="endArrow=none;html=1;rounded=0;entryX=0.5;entryY=1;entryDx=0;entryDy=0;exitX=0.5;exitY=0;exitDx=0;exitDy=0;" parent="1" source="lGGdBTwff3QEFtOllZTl-195" target="lGGdBTwff3QEFtOllZTl-160" edge="1">
          <mxGeometry width="50" height="50" relative="1" as="geometry">
            <mxPoint x="630" y="1790" as="sourcePoint" />
            <mxPoint x="680" y="1740" as="targetPoint" />
          </mxGeometry>
        </mxCell>
        <mxCell id="lGGdBTwff3QEFtOllZTl-197" value="Correo" style="ellipse;whiteSpace=wrap;html=1;strokeColor=#000000;fillColor=#dae8fc;" parent="1" vertex="1">
          <mxGeometry x="655" y="1780" width="100" height="30" as="geometry" />
        </mxCell>
        <mxCell id="lGGdBTwff3QEFtOllZTl-198" value="" style="endArrow=none;html=1;rounded=0;entryX=0.5;entryY=1;entryDx=0;entryDy=0;exitX=0.5;exitY=0;exitDx=0;exitDy=0;" parent="1" source="lGGdBTwff3QEFtOllZTl-197" target="lGGdBTwff3QEFtOllZTl-160" edge="1">
          <mxGeometry width="50" height="50" relative="1" as="geometry">
            <mxPoint x="660" y="1780" as="sourcePoint" />
            <mxPoint x="710" y="1730" as="targetPoint" />
          </mxGeometry>
        </mxCell>
        <mxCell id="lGGdBTwff3QEFtOllZTl-199" value="" style="endArrow=none;html=1;rounded=0;exitX=1;exitY=0.5;exitDx=0;exitDy=0;entryX=0;entryY=0.5;entryDx=0;entryDy=0;" parent="1" source="lGGdBTwff3QEFtOllZTl-153" target="lGGdBTwff3QEFtOllZTl-200" edge="1">
          <mxGeometry width="50" height="50" relative="1" as="geometry">
            <mxPoint x="40" y="1290" as="sourcePoint" />
            <mxPoint x="40" y="1240" as="targetPoint" />
          </mxGeometry>
        </mxCell>
        <mxCell id="lGGdBTwff3QEFtOllZTl-200" value="&lt;u&gt;IdCartas&lt;/u&gt;" style="ellipse;whiteSpace=wrap;html=1;strokeColor=#000000;fillColor=#dae8fc;" parent="1" vertex="1">
          <mxGeometry x="50" y="1235" width="100" height="30" as="geometry" />
        </mxCell>
        <mxCell id="lGGdBTwff3QEFtOllZTl-201" value="Formato" style="ellipse;whiteSpace=wrap;html=1;strokeColor=#000000;fillColor=#dae8fc;" parent="1" vertex="1">
          <mxGeometry x="50" y="1280" width="100" height="30" as="geometry" />
        </mxCell>
        <mxCell id="lGGdBTwff3QEFtOllZTl-202" value="" style="endArrow=none;html=1;rounded=0;entryX=1;entryY=0.5;entryDx=0;entryDy=0;exitX=0;exitY=0.5;exitDx=0;exitDy=0;" parent="1" source="lGGdBTwff3QEFtOllZTl-201" target="lGGdBTwff3QEFtOllZTl-153" edge="1">
          <mxGeometry width="50" height="50" relative="1" as="geometry">
            <mxPoint x="20" y="1360" as="sourcePoint" />
            <mxPoint x="70" y="1310" as="targetPoint" />
          </mxGeometry>
        </mxCell>
        <mxCell id="lGGdBTwff3QEFtOllZTl-204" value="" style="endArrow=none;html=1;rounded=0;exitX=1;exitY=0.25;exitDx=0;exitDy=0;entryX=0.5;entryY=0;entryDx=0;entryDy=0;" parent="1" source="lGGdBTwff3QEFtOllZTl-159" target="lGGdBTwff3QEFtOllZTl-205" edge="1">
          <mxGeometry width="50" height="50" relative="1" as="geometry">
            <mxPoint x="190" y="1710" as="sourcePoint" />
            <mxPoint x="230" y="1670" as="targetPoint" />
          </mxGeometry>
        </mxCell>
        <mxCell id="lGGdBTwff3QEFtOllZTl-205" value="certifica" style="rhombus;whiteSpace=wrap;html=1;strokeColor=#000000;fillColor=#fff2cc;" parent="1" vertex="1">
          <mxGeometry x="230" y="1660" width="80" height="80" as="geometry" />
        </mxCell>
        <mxCell id="lGGdBTwff3QEFtOllZTl-206" value="" style="endArrow=none;html=1;rounded=0;entryX=0.5;entryY=1;entryDx=0;entryDy=0;exitX=1;exitY=0.75;exitDx=0;exitDy=0;" parent="1" source="lGGdBTwff3QEFtOllZTl-159" target="lGGdBTwff3QEFtOllZTl-205" edge="1">
          <mxGeometry width="50" height="50" relative="1" as="geometry">
            <mxPoint x="200" y="1780" as="sourcePoint" />
            <mxPoint x="250" y="1730" as="targetPoint" />
          </mxGeometry>
        </mxCell>
        <mxCell id="lGGdBTwff3QEFtOllZTl-207" value="Compuesta" style="rhombus;whiteSpace=wrap;html=1;strokeColor=#000000;fillColor=#fff2cc;" parent="1" vertex="1">
          <mxGeometry x="-440" y="820" width="80" height="80" as="geometry" />
        </mxCell>
        <mxCell id="lGGdBTwff3QEFtOllZTl-208" value="" style="endArrow=none;html=1;rounded=0;entryX=0.5;entryY=1;entryDx=0;entryDy=0;exitX=0.5;exitY=0;exitDx=0;exitDy=0;" parent="1" source="lGGdBTwff3QEFtOllZTl-207" target="lGGdBTwff3QEFtOllZTl-134" edge="1">
          <mxGeometry width="50" height="50" relative="1" as="geometry">
            <mxPoint x="-630" y="810" as="sourcePoint" />
            <mxPoint x="-580" y="760" as="targetPoint" />
          </mxGeometry>
        </mxCell>
        <mxCell id="lGGdBTwff3QEFtOllZTl-209" value="" style="endArrow=none;html=1;rounded=0;entryX=0.5;entryY=1;entryDx=0;entryDy=0;exitX=0.5;exitY=0;exitDx=0;exitDy=0;" parent="1" source="lGGdBTwff3QEFtOllZTl-154" target="lGGdBTwff3QEFtOllZTl-207" edge="1">
          <mxGeometry width="50" height="50" relative="1" as="geometry">
            <mxPoint x="-520" y="990" as="sourcePoint" />
            <mxPoint x="-470" y="940" as="targetPoint" />
          </mxGeometry>
        </mxCell>
        <mxCell id="eeh1tL5n_8gSVsJnebqd-1" value="Fecha" style="ellipse;whiteSpace=wrap;html=1;strokeColor=#000000;fillColor=#dae8fc;" parent="1" vertex="1">
          <mxGeometry x="-690" y="645" width="100" height="30" as="geometry" />
        </mxCell>
        <mxCell id="eeh1tL5n_8gSVsJnebqd-2" value="" style="endArrow=none;html=1;rounded=0;entryX=0;entryY=0.5;entryDx=0;entryDy=0;exitX=1;exitY=0.5;exitDx=0;exitDy=0;" parent="1" source="eeh1tL5n_8gSVsJnebqd-1" target="lGGdBTwff3QEFtOllZTl-134" edge="1">
          <mxGeometry width="50" height="50" relative="1" as="geometry">
            <mxPoint x="-600" y="720" as="sourcePoint" />
            <mxPoint x="-550" y="670" as="targetPoint" />
          </mxGeometry>
        </mxCell>
        <mxCell id="eeh1tL5n_8gSVsJnebqd-3" value="(0,1)" style="text;html=1;align=center;verticalAlign=middle;resizable=0;points=[];autosize=1;strokeColor=none;fillColor=none;" parent="1" vertex="1">
          <mxGeometry x="-465" y="695" width="50" height="30" as="geometry" />
        </mxCell>
        <mxCell id="eeh1tL5n_8gSVsJnebqd-4" value="(0,N)" style="text;html=1;align=center;verticalAlign=middle;resizable=0;points=[];autosize=1;strokeColor=none;fillColor=none;" parent="1" vertex="1">
          <mxGeometry x="200" y="1190" width="50" height="30" as="geometry" />
        </mxCell>
        <mxCell id="eeh1tL5n_8gSVsJnebqd-5" value="" style="endArrow=none;html=1;rounded=0;exitX=0.5;exitY=0;exitDx=0;exitDy=0;entryX=0.5;entryY=1;entryDx=0;entryDy=0;" parent="1" source="lGGdBTwff3QEFtOllZTl-134" target="eeh1tL5n_8gSVsJnebqd-6" edge="1">
          <mxGeometry width="50" height="50" relative="1" as="geometry">
            <mxPoint x="-500" y="520" as="sourcePoint" />
            <mxPoint x="-480" y="-329.7979181463068" as="targetPoint" />
          </mxGeometry>
        </mxCell>
        <mxCell id="eeh1tL5n_8gSVsJnebqd-6" value="Tiene" style="rhombus;whiteSpace=wrap;html=1;strokeColor=#000000;fillColor=#fff2cc;" parent="1" vertex="1">
          <mxGeometry x="-520" y="-420" width="80" height="80" as="geometry" />
        </mxCell>
        <mxCell id="eeh1tL5n_8gSVsJnebqd-7" value="" style="endArrow=none;html=1;rounded=0;exitX=1;exitY=0.5;exitDx=0;exitDy=0;entryX=0.5;entryY=0;entryDx=0;entryDy=0;" parent="1" source="eeh1tL5n_8gSVsJnebqd-6" target="lGGdBTwff3QEFtOllZTl-21" edge="1">
          <mxGeometry width="50" height="50" relative="1" as="geometry">
            <mxPoint x="-390" y="-350" as="sourcePoint" />
            <mxPoint x="1510" y="-400" as="targetPoint" />
            <Array as="points">
              <mxPoint x="1540" y="-380" />
            </Array>
          </mxGeometry>
        </mxCell>
        <mxCell id="eeh1tL5n_8gSVsJnebqd-8" value="" style="endArrow=none;html=1;rounded=0;entryX=0.5;entryY=1;entryDx=0;entryDy=0;exitX=0.5;exitY=0;exitDx=0;exitDy=0;" parent="1" source="eeh1tL5n_8gSVsJnebqd-9" target="lGGdBTwff3QEFtOllZTl-21" edge="1">
          <mxGeometry width="50" height="50" relative="1" as="geometry">
            <mxPoint x="1560" y="1300" as="sourcePoint" />
            <mxPoint x="1610" y="390" as="targetPoint" />
          </mxGeometry>
        </mxCell>
        <mxCell id="eeh1tL5n_8gSVsJnebqd-9" value="Tiene" style="rhombus;whiteSpace=wrap;html=1;strokeColor=#000000;fillColor=#fff2cc;" parent="1" vertex="1">
          <mxGeometry x="1500" y="1820" width="80" height="80" as="geometry" />
        </mxCell>
        <mxCell id="eeh1tL5n_8gSVsJnebqd-10" value="" style="endArrow=none;html=1;rounded=0;entryX=0;entryY=0.5;entryDx=0;entryDy=0;exitX=0.5;exitY=1;exitDx=0;exitDy=0;" parent="1" source="lGGdBTwff3QEFtOllZTl-159" target="eeh1tL5n_8gSVsJnebqd-9" edge="1">
          <mxGeometry width="50" height="50" relative="1" as="geometry">
            <mxPoint x="75.18519810267857" y="1860" as="sourcePoint" />
            <mxPoint x="1410" y="1840" as="targetPoint" />
            <Array as="points">
              <mxPoint x="90" y="1860" />
            </Array>
          </mxGeometry>
        </mxCell>
        <mxCell id="eeh1tL5n_8gSVsJnebqd-11" value="(1,M)" style="text;html=1;align=center;verticalAlign=middle;resizable=0;points=[];autosize=1;strokeColor=none;fillColor=none;" parent="1" vertex="1">
          <mxGeometry x="1535" y="265" width="50" height="30" as="geometry" />
        </mxCell>
        <mxCell id="eeh1tL5n_8gSVsJnebqd-12" value="(0,N)" style="text;html=1;align=center;verticalAlign=middle;resizable=0;points=[];autosize=1;strokeColor=none;fillColor=none;" parent="1" vertex="1">
          <mxGeometry x="185" y="1835" width="50" height="30" as="geometry" />
        </mxCell>
        <mxCell id="eeh1tL5n_8gSVsJnebqd-13" value="" style="endArrow=none;html=1;rounded=0;exitX=1;exitY=0.5;exitDx=0;exitDy=0;entryX=0;entryY=0.5;entryDx=0;entryDy=0;" parent="1" source="lGGdBTwff3QEFtOllZTl-154" target="eeh1tL5n_8gSVsJnebqd-16" edge="1">
          <mxGeometry width="50" height="50" relative="1" as="geometry">
            <mxPoint x="360" y="1260" as="sourcePoint" />
            <mxPoint x="390" y="1210" as="targetPoint" />
          </mxGeometry>
        </mxCell>
        <mxCell id="eeh1tL5n_8gSVsJnebqd-14" value="" style="endArrow=none;html=1;rounded=0;exitX=1;exitY=0.5;exitDx=0;exitDy=0;entryX=0;entryY=0.5;entryDx=0;entryDy=0;" parent="1" source="lGGdBTwff3QEFtOllZTl-154" target="eeh1tL5n_8gSVsJnebqd-17" edge="1">
          <mxGeometry width="50" height="50" relative="1" as="geometry">
            <mxPoint x="420" y="1360" as="sourcePoint" />
            <mxPoint x="470" y="1310" as="targetPoint" />
          </mxGeometry>
        </mxCell>
        <mxCell id="eeh1tL5n_8gSVsJnebqd-15" value="" style="endArrow=none;html=1;rounded=0;exitX=1;exitY=0.5;exitDx=0;exitDy=0;entryX=0;entryY=0.5;entryDx=0;entryDy=0;" parent="1" source="lGGdBTwff3QEFtOllZTl-154" target="eeh1tL5n_8gSVsJnebqd-18" edge="1">
          <mxGeometry width="50" height="50" relative="1" as="geometry">
            <mxPoint x="360" y="1380" as="sourcePoint" />
            <mxPoint x="410" y="1330" as="targetPoint" />
          </mxGeometry>
        </mxCell>
        <mxCell id="eeh1tL5n_8gSVsJnebqd-16" value="Dimensión" style="ellipse;whiteSpace=wrap;html=1;strokeColor=#000000;fillColor=#dae8fc;" parent="1" vertex="1">
          <mxGeometry x="395" y="1210" width="100" height="30" as="geometry" />
        </mxCell>
        <mxCell id="eeh1tL5n_8gSVsJnebqd-17" value="&lt;u&gt;Id Paquete&lt;/u&gt;" style="ellipse;whiteSpace=wrap;html=1;strokeColor=#000000;fillColor=#dae8fc;" parent="1" vertex="1">
          <mxGeometry x="395" y="1255" width="100" height="30" as="geometry" />
        </mxCell>
        <mxCell id="eeh1tL5n_8gSVsJnebqd-18" value="Peso" style="ellipse;whiteSpace=wrap;html=1;strokeColor=#000000;fillColor=#dae8fc;" parent="1" vertex="1">
          <mxGeometry x="395" y="1300" width="100" height="30" as="geometry" />
        </mxCell>
        <mxCell id="eeh1tL5n_8gSVsJnebqd-19" value="" style="endArrow=none;html=1;rounded=0;exitX=1;exitY=0.5;exitDx=0;exitDy=0;entryX=0;entryY=0.5;entryDx=0;entryDy=0;" parent="1" source="lGGdBTwff3QEFtOllZTl-170" target="eeh1tL5n_8gSVsJnebqd-20" edge="1">
          <mxGeometry width="50" height="50" relative="1" as="geometry">
            <mxPoint x="400" y="1430" as="sourcePoint" />
            <mxPoint x="420" y="1410" as="targetPoint" />
          </mxGeometry>
        </mxCell>
        <mxCell id="eeh1tL5n_8gSVsJnebqd-20" value="Detalles" style="ellipse;whiteSpace=wrap;html=1;strokeColor=#000000;fillColor=#dae8fc;" parent="1" vertex="1">
          <mxGeometry x="410" y="1400" width="100" height="30" as="geometry" />
        </mxCell>
        <mxCell id="eeh1tL5n_8gSVsJnebqd-21" value="Hora" style="ellipse;whiteSpace=wrap;html=1;strokeColor=#000000;fillColor=#dae8fc;" parent="1" vertex="1">
          <mxGeometry x="410" y="1450" width="100" height="30" as="geometry" />
        </mxCell>
        <mxCell id="eeh1tL5n_8gSVsJnebqd-22" value="" style="endArrow=none;html=1;rounded=0;entryX=0;entryY=0.5;entryDx=0;entryDy=0;exitX=1;exitY=0.5;exitDx=0;exitDy=0;" parent="1" source="lGGdBTwff3QEFtOllZTl-170" target="eeh1tL5n_8gSVsJnebqd-21" edge="1">
          <mxGeometry width="50" height="50" relative="1" as="geometry">
            <mxPoint x="380" y="1560" as="sourcePoint" />
            <mxPoint x="430" y="1510" as="targetPoint" />
          </mxGeometry>
        </mxCell>
        <mxCell id="eeh1tL5n_8gSVsJnebqd-23" value="" style="endArrow=none;html=1;rounded=0;exitX=1;exitY=0.5;exitDx=0;exitDy=0;entryX=0;entryY=0.5;entryDx=0;entryDy=0;" parent="1" target="eeh1tL5n_8gSVsJnebqd-24" edge="1">
          <mxGeometry width="50" height="50" relative="1" as="geometry">
            <mxPoint x="2.2737367544323206e-13" y="1440" as="sourcePoint" />
            <mxPoint x="30" y="1410" as="targetPoint" />
          </mxGeometry>
        </mxCell>
        <mxCell id="eeh1tL5n_8gSVsJnebqd-24" value="Detalles" style="ellipse;whiteSpace=wrap;html=1;strokeColor=#000000;fillColor=#dae8fc;" parent="1" vertex="1">
          <mxGeometry x="20" y="1400" width="100" height="30" as="geometry" />
        </mxCell>
        <mxCell id="eeh1tL5n_8gSVsJnebqd-25" value="Hora" style="ellipse;whiteSpace=wrap;html=1;strokeColor=#000000;fillColor=#dae8fc;" parent="1" vertex="1">
          <mxGeometry x="20" y="1450" width="100" height="30" as="geometry" />
        </mxCell>
        <mxCell id="eeh1tL5n_8gSVsJnebqd-26" value="" style="endArrow=none;html=1;rounded=0;entryX=0;entryY=0.5;entryDx=0;entryDy=0;exitX=1;exitY=0.5;exitDx=0;exitDy=0;" parent="1" target="eeh1tL5n_8gSVsJnebqd-25" edge="1">
          <mxGeometry width="50" height="50" relative="1" as="geometry">
            <mxPoint x="2.2737367544323206e-13" y="1440" as="sourcePoint" />
            <mxPoint x="40" y="1510" as="targetPoint" />
          </mxGeometry>
        </mxCell>
        <mxCell id="eeh1tL5n_8gSVsJnebqd-27" value="" style="endArrow=none;html=1;rounded=0;exitX=1;exitY=0.5;exitDx=0;exitDy=0;entryX=0;entryY=0.5;entryDx=0;entryDy=0;" parent="1" target="eeh1tL5n_8gSVsJnebqd-28" edge="1">
          <mxGeometry width="50" height="50" relative="1" as="geometry">
            <mxPoint x="765.0000000000002" y="1480" as="sourcePoint" />
            <mxPoint x="795" y="1450" as="targetPoint" />
          </mxGeometry>
        </mxCell>
        <mxCell id="eeh1tL5n_8gSVsJnebqd-28" value="Detalles" style="ellipse;whiteSpace=wrap;html=1;strokeColor=#000000;fillColor=#dae8fc;" parent="1" vertex="1">
          <mxGeometry x="785" y="1440" width="100" height="30" as="geometry" />
        </mxCell>
        <mxCell id="eeh1tL5n_8gSVsJnebqd-29" value="Hora" style="ellipse;whiteSpace=wrap;html=1;strokeColor=#000000;fillColor=#dae8fc;" parent="1" vertex="1">
          <mxGeometry x="785" y="1490" width="100" height="30" as="geometry" />
        </mxCell>
        <mxCell id="eeh1tL5n_8gSVsJnebqd-30" value="" style="endArrow=none;html=1;rounded=0;entryX=0;entryY=0.5;entryDx=0;entryDy=0;exitX=1;exitY=0.5;exitDx=0;exitDy=0;" parent="1" target="eeh1tL5n_8gSVsJnebqd-29" edge="1">
          <mxGeometry width="50" height="50" relative="1" as="geometry">
            <mxPoint x="765.0000000000002" y="1480" as="sourcePoint" />
            <mxPoint x="805" y="1550" as="targetPoint" />
          </mxGeometry>
        </mxCell>
        <mxCell id="eeh1tL5n_8gSVsJnebqd-31" value="" style="endArrow=none;html=1;rounded=0;exitX=1;exitY=0.5;exitDx=0;exitDy=0;entryX=0;entryY=0.5;entryDx=0;entryDy=0;" parent="1" source="lGGdBTwff3QEFtOllZTl-155" target="eeh1tL5n_8gSVsJnebqd-32" edge="1">
          <mxGeometry width="50" height="50" relative="1" as="geometry">
            <mxPoint x="740" y="1240" as="sourcePoint" />
            <mxPoint x="790" y="1190" as="targetPoint" />
          </mxGeometry>
        </mxCell>
        <mxCell id="eeh1tL5n_8gSVsJnebqd-32" value="&lt;u&gt;Id CartaCert&lt;/u&gt;" style="ellipse;whiteSpace=wrap;html=1;strokeColor=#000000;fillColor=#dae8fc;" parent="1" vertex="1">
          <mxGeometry x="740" y="1235" width="100" height="30" as="geometry" />
        </mxCell>
        <mxCell id="eeh1tL5n_8gSVsJnebqd-33" value="Nivel urgencia" style="ellipse;whiteSpace=wrap;html=1;strokeColor=#000000;fillColor=#dae8fc;" parent="1" vertex="1">
          <mxGeometry x="745" y="1280" width="100" height="30" as="geometry" />
        </mxCell>
        <mxCell id="eeh1tL5n_8gSVsJnebqd-34" value="" style="endArrow=none;html=1;rounded=0;entryX=0;entryY=0.5;entryDx=0;entryDy=0;exitX=1;exitY=0.5;exitDx=0;exitDy=0;" parent="1" source="lGGdBTwff3QEFtOllZTl-155" target="eeh1tL5n_8gSVsJnebqd-33" edge="1">
          <mxGeometry width="50" height="50" relative="1" as="geometry">
            <mxPoint x="740" y="1380" as="sourcePoint" />
            <mxPoint x="790" y="1330" as="targetPoint" />
          </mxGeometry>
        </mxCell>
        <mxCell id="eeh1tL5n_8gSVsJnebqd-35" value="" style="endArrow=none;html=1;rounded=0;entryX=0.5;entryY=1;entryDx=0;entryDy=0;exitX=0.5;exitY=0;exitDx=0;exitDy=0;" parent="1" source="eeh1tL5n_8gSVsJnebqd-36" target="lGGdBTwff3QEFtOllZTl-134" edge="1">
          <mxGeometry width="50" height="50" relative="1" as="geometry">
            <mxPoint x="-590" y="830" as="sourcePoint" />
            <mxPoint x="-540" y="770" as="targetPoint" />
          </mxGeometry>
        </mxCell>
        <mxCell id="eeh1tL5n_8gSVsJnebqd-36" value="Ordena" style="rhombus;whiteSpace=wrap;html=1;strokeColor=#000000;fillColor=#fff2cc;" parent="1" vertex="1">
          <mxGeometry x="-620" y="820" width="80" height="80" as="geometry" />
        </mxCell>
        <mxCell id="eeh1tL5n_8gSVsJnebqd-37" value="" style="endArrow=none;html=1;rounded=0;entryX=0.5;entryY=1;entryDx=0;entryDy=0;exitX=0;exitY=0.5;exitDx=0;exitDy=0;" parent="1" source="lGGdBTwff3QEFtOllZTl-159" target="eeh1tL5n_8gSVsJnebqd-36" edge="1">
          <mxGeometry width="50" height="50" relative="1" as="geometry">
            <mxPoint x="-590" y="1080" as="sourcePoint" />
            <mxPoint x="-540" y="1030" as="targetPoint" />
            <Array as="points">
              <mxPoint x="-580" y="1700" />
            </Array>
          </mxGeometry>
        </mxCell>
        <mxCell id="eeh1tL5n_8gSVsJnebqd-38" value="(1,1)" style="text;html=1;align=center;verticalAlign=middle;resizable=0;points=[];autosize=1;strokeColor=none;fillColor=none;" parent="1" vertex="1">
          <mxGeometry x="-30" y="1700" width="50" height="30" as="geometry" />
        </mxCell>
        <mxCell id="eeh1tL5n_8gSVsJnebqd-39" value="(0,N)" style="text;html=1;align=center;verticalAlign=middle;resizable=0;points=[];autosize=1;strokeColor=none;fillColor=none;" parent="1" vertex="1">
          <mxGeometry x="-570" y="745" width="50" height="30" as="geometry" />
        </mxCell>
        <mxCell id="eeh1tL5n_8gSVsJnebqd-44" value="&lt;u&gt;L&lt;/u&gt;e&lt;u&gt;t&lt;/u&gt;r&lt;u&gt;a&lt;/u&gt;" style="ellipse;whiteSpace=wrap;html=1;strokeColor=#000000;fillColor=#dae8fc;" parent="1" vertex="1">
          <mxGeometry x="1656" y="145" width="100" height="30" as="geometry" />
        </mxCell>
        <mxCell id="eeh1tL5n_8gSVsJnebqd-45" value="&lt;u&gt;P&lt;/u&gt;i&lt;u&gt;s&lt;/u&gt;o" style="ellipse;whiteSpace=wrap;html=1;strokeColor=#000000;fillColor=#dae8fc;" parent="1" vertex="1">
          <mxGeometry x="1656" y="187" width="100" height="30" as="geometry" />
        </mxCell>
        <mxCell id="eeh1tL5n_8gSVsJnebqd-46" value="&lt;u&gt;N&lt;/u&gt;ú&lt;u&gt;m&lt;/u&gt;e&lt;u&gt;r&lt;/u&gt;o" style="ellipse;whiteSpace=wrap;html=1;strokeColor=#000000;fillColor=#dae8fc;" parent="1" vertex="1">
          <mxGeometry x="1656" y="233" width="100" height="30" as="geometry" />
        </mxCell>
        <mxCell id="eeh1tL5n_8gSVsJnebqd-47" value="&lt;u&gt;P&lt;/u&gt;o&lt;u&gt;r&lt;/u&gt;t&lt;u&gt;a&lt;/u&gt;l" style="ellipse;whiteSpace=wrap;html=1;strokeColor=#000000;fillColor=#dae8fc;" parent="1" vertex="1">
          <mxGeometry x="1656" y="275" width="100" height="30" as="geometry" />
        </mxCell>
        <mxCell id="eeh1tL5n_8gSVsJnebqd-49" value="" style="endArrow=none;html=1;rounded=0;entryX=0;entryY=0.5;entryDx=0;entryDy=0;exitX=1;exitY=0.5;exitDx=0;exitDy=0;" parent="1" source="lGGdBTwff3QEFtOllZTl-21" target="eeh1tL5n_8gSVsJnebqd-44" edge="1">
          <mxGeometry width="50" height="50" relative="1" as="geometry">
            <mxPoint x="1630" y="260" as="sourcePoint" />
            <mxPoint x="1640" y="290" as="targetPoint" />
          </mxGeometry>
        </mxCell>
        <mxCell id="eeh1tL5n_8gSVsJnebqd-50" value="" style="endArrow=none;html=1;rounded=0;entryX=0;entryY=0.5;entryDx=0;entryDy=0;exitX=1;exitY=0.5;exitDx=0;exitDy=0;" parent="1" source="lGGdBTwff3QEFtOllZTl-21" target="eeh1tL5n_8gSVsJnebqd-45" edge="1">
          <mxGeometry width="50" height="50" relative="1" as="geometry">
            <mxPoint x="1630" y="370" as="sourcePoint" />
            <mxPoint x="1680" y="320" as="targetPoint" />
          </mxGeometry>
        </mxCell>
        <mxCell id="eeh1tL5n_8gSVsJnebqd-51" value="" style="endArrow=none;html=1;rounded=0;entryX=0;entryY=0.5;entryDx=0;entryDy=0;exitX=1;exitY=0.5;exitDx=0;exitDy=0;" parent="1" source="lGGdBTwff3QEFtOllZTl-21" target="eeh1tL5n_8gSVsJnebqd-46" edge="1">
          <mxGeometry width="50" height="50" relative="1" as="geometry">
            <mxPoint x="1580" y="370" as="sourcePoint" />
            <mxPoint x="1630" y="320" as="targetPoint" />
          </mxGeometry>
        </mxCell>
        <mxCell id="eeh1tL5n_8gSVsJnebqd-54" value="" style="endArrow=none;html=1;rounded=0;entryX=0;entryY=0.5;entryDx=0;entryDy=0;exitX=1;exitY=0.5;exitDx=0;exitDy=0;" parent="1" source="lGGdBTwff3QEFtOllZTl-21" target="eeh1tL5n_8gSVsJnebqd-47" edge="1">
          <mxGeometry width="50" height="50" relative="1" as="geometry">
            <mxPoint x="1590" y="130" as="sourcePoint" />
            <mxPoint x="1640" y="80" as="targetPoint" />
          </mxGeometry>
        </mxCell>
        <mxCell id="eeh1tL5n_8gSVsJnebqd-55" value="" style="endArrow=none;html=1;rounded=0;exitX=0.5;exitY=0;exitDx=0;exitDy=0;entryX=0.5;entryY=1;entryDx=0;entryDy=0;" parent="1" source="lGGdBTwff3QEFtOllZTl-140" target="eeh1tL5n_8gSVsJnebqd-57" edge="1">
          <mxGeometry width="50" height="50" relative="1" as="geometry">
            <mxPoint x="-310" y="160" as="sourcePoint" />
            <mxPoint x="-320" y="130" as="targetPoint" />
          </mxGeometry>
        </mxCell>
        <mxCell id="eeh1tL5n_8gSVsJnebqd-56" value="" style="endArrow=none;html=1;rounded=0;exitX=0.5;exitY=0;exitDx=0;exitDy=0;entryX=0.5;entryY=1;entryDx=0;entryDy=0;" parent="1" source="lGGdBTwff3QEFtOllZTl-140" target="eeh1tL5n_8gSVsJnebqd-58" edge="1">
          <mxGeometry width="50" height="50" relative="1" as="geometry">
            <mxPoint x="-270" y="180" as="sourcePoint" />
            <mxPoint x="-230" y="130" as="targetPoint" />
          </mxGeometry>
        </mxCell>
        <mxCell id="eeh1tL5n_8gSVsJnebqd-57" value="&lt;u&gt;Id coche&lt;/u&gt;&lt;span style=&quot;color: rgba(0, 0, 0, 0); font-family: monospace; font-size: 0px; text-align: start;&quot;&gt;%3CmxGraphModel%3E%3Croot%3E%3CmxCell%20id%3D%220%22%2F%3E%3CmxCell%20id%3D%221%22%20parent%3D%220%22%2F%3E%3CmxCell%20id%3D%222%22%20value%3D%22%26lt%3Bu%26gt%3BCodigo%20oficina%26lt%3B%2Fu%26gt%3B%22%20style%3D%22ellipse%3BwhiteSpace%3Dwrap%3Bhtml%3D1%3BstrokeColor%3D%23000000%3BfillColor%3D%23dae8fc%3B%22%20vertex%3D%221%22%20parent%3D%221%22%3E%3CmxGeometry%20x%3D%22160%22%20y%3D%22118%22%20width%3D%22100%22%20height%3D%2230%22%20as%3D%22geometry%22%2F%3E%3C%2FmxCell%3E%3C%2Froot%3E%3C%2FmxGraphModel%3E&lt;/span&gt;" style="ellipse;whiteSpace=wrap;html=1;strokeColor=#000000;fillColor=#dae8fc;" parent="1" vertex="1">
          <mxGeometry x="-400" y="88" width="100" height="30" as="geometry" />
        </mxCell>
        <mxCell id="eeh1tL5n_8gSVsJnebqd-58" value="Capacidad" style="ellipse;whiteSpace=wrap;html=1;strokeColor=#000000;fillColor=#dae8fc;" parent="1" vertex="1">
          <mxGeometry x="-280" y="88" width="100" height="30" as="geometry" />
        </mxCell>
        <mxCell id="eeh1tL5n_8gSVsJnebqd-59" value="(1,1)" style="text;html=1;align=center;verticalAlign=middle;resizable=0;points=[];autosize=1;strokeColor=none;fillColor=none;" parent="1" vertex="1">
          <mxGeometry x="170" y="215" width="50" height="30" as="geometry" />
        </mxCell>
        <mxCell id="eeh1tL5n_8gSVsJnebqd-60" value="(1,N)" style="text;html=1;align=center;verticalAlign=middle;resizable=0;points=[];autosize=1;strokeColor=none;fillColor=none;" parent="1" vertex="1">
          <mxGeometry x="-230" y="215" width="50" height="30" as="geometry" />
        </mxCell>
        <mxCell id="eeh1tL5n_8gSVsJnebqd-61" value="(1,1)" style="text;html=1;align=center;verticalAlign=middle;resizable=0;points=[];autosize=1;strokeColor=none;fillColor=none;" parent="1" vertex="1">
          <mxGeometry x="1545" y="140" width="50" height="30" as="geometry" />
        </mxCell>
        <mxCell id="eeh1tL5n_8gSVsJnebqd-62" value="(0,N)" style="text;html=1;align=center;verticalAlign=middle;resizable=0;points=[];autosize=1;strokeColor=none;fillColor=none;" parent="1" vertex="1">
          <mxGeometry x="-470" y="596" width="50" height="30" as="geometry" />
        </mxCell>
        <mxCell id="eeh1tL5n_8gSVsJnebqd-63" value="Pertenece" style="rhombus;whiteSpace=wrap;html=1;strokeColor=#000000;fillColor=#fff2cc;" parent="1" vertex="1">
          <mxGeometry x="360" y="990" width="80" height="80" as="geometry" />
        </mxCell>
        <mxCell id="eeh1tL5n_8gSVsJnebqd-64" value="Pertenece" style="rhombus;whiteSpace=wrap;html=1;strokeColor=#000000;fillColor=#fff2cc;" parent="1" vertex="1">
          <mxGeometry x="125" y="990" width="80" height="80" as="geometry" />
        </mxCell>
        <mxCell id="eeh1tL5n_8gSVsJnebqd-65" value="" style="endArrow=none;html=1;rounded=0;entryX=0.5;entryY=1;entryDx=0;entryDy=0;" parent="1" source="lGGdBTwff3QEFtOllZTl-155" target="eeh1tL5n_8gSVsJnebqd-63" edge="1">
          <mxGeometry width="50" height="50" relative="1" as="geometry">
            <mxPoint x="540" y="1120" as="sourcePoint" />
            <mxPoint x="590" y="1070" as="targetPoint" />
          </mxGeometry>
        </mxCell>
        <mxCell id="eeh1tL5n_8gSVsJnebqd-66" value="" style="endArrow=none;html=1;rounded=0;entryX=0.5;entryY=1;entryDx=0;entryDy=0;exitX=0.5;exitY=0;exitDx=0;exitDy=0;" parent="1" source="lGGdBTwff3QEFtOllZTl-153" target="eeh1tL5n_8gSVsJnebqd-64" edge="1">
          <mxGeometry width="50" height="50" relative="1" as="geometry">
            <mxPoint x="70" y="1120" as="sourcePoint" />
            <mxPoint x="120" y="1070" as="targetPoint" />
          </mxGeometry>
        </mxCell>
        <mxCell id="eeh1tL5n_8gSVsJnebqd-67" value="" style="endArrow=none;html=1;rounded=0;exitX=0.5;exitY=0;exitDx=0;exitDy=0;entryX=0.5;entryY=1;entryDx=0;entryDy=0;" parent="1" source="eeh1tL5n_8gSVsJnebqd-64" target="lGGdBTwff3QEFtOllZTl-113" edge="1">
          <mxGeometry width="50" height="50" relative="1" as="geometry">
            <mxPoint x="190" y="930" as="sourcePoint" />
            <mxPoint x="240" y="880" as="targetPoint" />
            <Array as="points" />
          </mxGeometry>
        </mxCell>
        <mxCell id="eeh1tL5n_8gSVsJnebqd-68" value="" style="endArrow=none;html=1;rounded=0;exitX=0.5;exitY=0;exitDx=0;exitDy=0;entryX=0.5;entryY=1;entryDx=0;entryDy=0;" parent="1" source="eeh1tL5n_8gSVsJnebqd-63" target="lGGdBTwff3QEFtOllZTl-113" edge="1">
          <mxGeometry width="50" height="50" relative="1" as="geometry">
            <mxPoint x="490" y="970" as="sourcePoint" />
            <mxPoint x="540" y="920" as="targetPoint" />
          </mxGeometry>
        </mxCell>
        <mxCell id="eeh1tL5n_8gSVsJnebqd-69" value="(0,1)" style="text;html=1;align=center;verticalAlign=middle;resizable=0;points=[];autosize=1;strokeColor=none;fillColor=none;" parent="1" vertex="1">
          <mxGeometry x="235" y="895" width="50" height="30" as="geometry" />
        </mxCell>
        <mxCell id="eeh1tL5n_8gSVsJnebqd-70" value="(0,1)" style="text;html=1;align=center;verticalAlign=middle;resizable=0;points=[];autosize=1;strokeColor=none;fillColor=none;" parent="1" vertex="1">
          <mxGeometry x="290" y="865" width="50" height="30" as="geometry" />
        </mxCell>
        <mxCell id="eeh1tL5n_8gSVsJnebqd-71" value="(1,M)" style="text;html=1;align=center;verticalAlign=middle;resizable=0;points=[];autosize=1;strokeColor=none;fillColor=none;" parent="1" vertex="1">
          <mxGeometry x="670" y="615" width="50" height="30" as="geometry" />
        </mxCell>
        <mxCell id="9IITK_Hqd2dyz2tdz5-P-1" value="&lt;u&gt;IDRecog&lt;/u&gt;" style="ellipse;whiteSpace=wrap;html=1;strokeColor=#000000;fillColor=#dae8fc;" parent="1" vertex="1">
          <mxGeometry x="-660" y="566" width="100" height="30" as="geometry" />
        </mxCell>
        <mxCell id="9IITK_Hqd2dyz2tdz5-P-2" value="" style="endArrow=none;html=1;rounded=0;entryX=0.25;entryY=0;entryDx=0;entryDy=0;exitX=1;exitY=0.5;exitDx=0;exitDy=0;" parent="1" source="9IITK_Hqd2dyz2tdz5-P-1" target="lGGdBTwff3QEFtOllZTl-134" edge="1">
          <mxGeometry width="50" height="50" relative="1" as="geometry">
            <mxPoint x="-580" y="670" as="sourcePoint" />
            <mxPoint x="-523" y="670" as="targetPoint" />
          </mxGeometry>
        </mxCell>
        <mxCell id="9IITK_Hqd2dyz2tdz5-P-4" value="Ruta" style="rounded=1;whiteSpace=wrap;html=1;fillColor=#ffe6cc;strokeColor=#000000;" parent="1" vertex="1">
          <mxGeometry x="1115" y="521" width="120" height="60" as="geometry" />
        </mxCell>
        <mxCell id="9IITK_Hqd2dyz2tdz5-P-5" value="segmento" style="rounded=1;whiteSpace=wrap;html=1;fillColor=#ffe6cc;strokeColor=#000000;" parent="1" vertex="1">
          <mxGeometry x="1120" y="526" width="110" height="50" as="geometry" />
        </mxCell>
        <mxCell id="9IITK_Hqd2dyz2tdz5-P-9" value="&lt;u&gt;IDUsuario&lt;/u&gt;" style="ellipse;whiteSpace=wrap;html=1;strokeColor=#000000;fillColor=#dae8fc;" parent="1" vertex="1">
          <mxGeometry x="-160" y="1730" width="140" height="80" as="geometry" />
        </mxCell>
        <mxCell id="9IITK_Hqd2dyz2tdz5-P-10" value="" style="endArrow=none;html=1;rounded=0;entryX=0.25;entryY=1;entryDx=0;entryDy=0;exitX=1;exitY=0.5;exitDx=0;exitDy=0;" parent="1" source="9IITK_Hqd2dyz2tdz5-P-9" target="lGGdBTwff3QEFtOllZTl-159" edge="1">
          <mxGeometry width="50" height="50" relative="1" as="geometry">
            <mxPoint x="40" y="1800" as="sourcePoint" />
            <mxPoint x="100" y="1740" as="targetPoint" />
          </mxGeometry>
        </mxCell>
        <mxCell id="9IITK_Hqd2dyz2tdz5-P-11" value="" style="endArrow=none;dashed=1;html=1;rounded=0;fontSize=12;" parent="1" edge="1">
          <mxGeometry width="50" height="50" relative="1" as="geometry">
            <mxPoint x="1135" y="138.95" as="sourcePoint" />
            <mxPoint x="1185" y="138.95" as="targetPoint" />
          </mxGeometry>
        </mxCell>
        <mxCell id="9IITK_Hqd2dyz2tdz5-P-12" value="&#xa;posee&#xa;&#xa;" style="rhombus;whiteSpace=wrap;html=1;strokeColor=#000000;fillColor=#fff2cc;" parent="1" vertex="1">
          <mxGeometry x="610" y="380" width="80" height="80" as="geometry" />
        </mxCell>
        <mxCell id="LCYWdq0vBGcCs3IoWQYl-1" value="&lt;u&gt;IdCartdero&lt;/u&gt;" style="ellipse;whiteSpace=wrap;html=1;strokeColor=#000000;fillColor=#dae8fc;" parent="1" vertex="1">
          <mxGeometry x="350" y="471.5" width="100" height="30" as="geometry" />
        </mxCell>
        <mxCell id="LCYWdq0vBGcCs3IoWQYl-2" value="" style="endArrow=none;html=1;rounded=0;entryX=1;entryY=0;entryDx=0;entryDy=0;exitX=0;exitY=1;exitDx=0;exitDy=0;" parent="1" source="LCYWdq0vBGcCs3IoWQYl-1" target="lGGdBTwff3QEFtOllZTl-27" edge="1">
          <mxGeometry width="50" height="50" relative="1" as="geometry">
            <mxPoint x="200" y="504.5" as="sourcePoint" />
            <mxPoint x="230" y="562.5" as="targetPoint" />
          </mxGeometry>
        </mxCell>
      </root>
    </mxGraphModel>
  </diagram>
</mxfile>
